<svg enable-background="new 0 0 64 64" viewBox="0 0 64 64" xmlns="http://www.w3.org/2000/svg"><path d="m59 33.6c0-2.7-1.7-5-4-6 .9-.9 1.5-2.2 1.5-3.6 0-2.8-2.3-5.1-5.1-5.1-.2 0-.4 0-.5 0 .3-.7.5-1.5.5-2.3 0-2.8-2.3-5.1-5.1-5.1-.9 0-1.7.2-2.4.6-.7-2-2.6-3.7-4.8-3.7-2.8 0-5 2.6-5.1 4.6v35h.1c0 3.6 2.9 6.4 6.5 6.4 3.2 0 5.8-2.3 6.4-5.3.6.2 1.3.3 2 .3 3.6 0 6.5-2.9 6.5-6.5 0-1.1-.3-2.2-.8-3.2 2.4-.8 4.3-3.2 4.3-6.1z" fill="#f0908b"/><path d="m5 33.6c0-2.7 1.7-5 4-6-.9-.9-1.5-2.2-1.5-3.6 0-2.8 2.3-5.1 5.1-5.1h.5c-.3-.7-.5-1.5-.5-2.3 0-2.8 2.3-5.1 5.1-5.1.9 0 1.7.2 2.4.6.7-2 2.6-3.7 4.8-3.7 2.8 0 5 2.6 5.1 4.6v35h-.1c0 3.6-2.9 6.4-6.5 6.4-3.2 0-5.8-2.3-6.4-5.3-.6.2-1.3.3-2 .3-3.6 0-6.5-2.9-6.5-6.5 0-1.1.3-2.2.8-3.2-2.4-.8-4.3-3.2-4.3-6.1z" fill="#f0908b"/><g style="fill:none;stroke:#2c3e50;stroke-linecap:round;stroke-linejoin:round;stroke-miterlimit:10;stroke-width:2"><path d="m59 33.6c0-2.7-1.7-5-4-6 .9-.9 1.5-2.2 1.5-3.6 0-2.8-2.3-5.1-5.1-5.1-.2 0-.4 0-.5 0 .3-.7.5-1.5.5-2.3 0-2.8-2.3-5.1-5.1-5.1-.9 0-1.7.2-2.4.6-.7-2-2.6-3.7-4.8-3.7-2.8 0-5 2.6-5.1 4.6v35h.1c0 3.6 2.9 6.4 6.5 6.4 3.2 0 5.8-2.3 6.4-5.3.6.2 1.3.3 2 .3 3.6 0 6.5-2.9 6.5-6.5 0-1.1-.3-2.2-.8-3.2 2.4-.8 4.3-3.2 4.3-6.1z"/><path d="m5 33.6c0-2.7 1.7-5 4-6-.9-.9-1.5-2.2-1.5-3.6 0-2.8 2.3-5.1 5.1-5.1h.5c-.3-.7-.5-1.5-.5-2.3 0-2.8 2.3-5.1 5.1-5.1.9 0 1.7.2 2.4.6.7-2 2.6-3.7 4.8-3.7 2.8 0 5 2.6 5.1 4.6v35h-.1c0 3.6-2.9 6.4-6.5 6.4-3.2 0-5.8-2.3-6.4-5.3-.6.2-1.3.3-2 .3-3.6 0-6.5-2.9-6.5-6.5 0-1.1.3-2.2.8-3.2-2.4-.8-4.3-3.2-4.3-6.1z"/><path d="m15.5 35.2s4.6-.7 6.6 3.8c2.2 5-.7 8.7-5 10.1"/><path d="m25.6 20.6s-2.5 4-7 3-5.4-4.7-5.4-4.7"/><path d="m25.6 29.6c-.1-.1-1.3-4.3-6.5-5.8"/><path d="m43.4 30.2s-1.2 4.4 2.6 7.8c1.8 1.6 5.4 2.1 8.5 1.7"/><path d="m42 22s2.7 1.7 5 1 3.9-4.1 3.9-4.1"/><path d="m40 44s1.3-5.1 7.3-5.1"/></g></svg>