<svg enable-background="new 0 0 64 64" viewBox="0 0 64 64" xmlns="http://www.w3.org/2000/svg"><path d="m51.5 29.2c0-11-9-20-20-20s-20 9-20 20c0 7.6 5.2 13.8 10.4 17.5 6.6 4.7 20 9.1 20 9.1v-9.5c5.7-3.4 9.6-9.8 9.6-17.1z" fill="#3b97d3"/><path d="m51.5 29.2c0-11-9-20-20-20s-20 9-20 20c0 7.6 5.2 13.8 10.4 17.5 6.6 4.7 20 9.1 20 9.1v-9.5c5.7-3.4 9.6-9.8 9.6-17.1z" style="fill:none;stroke:#2c3e50;stroke-linecap:round;stroke-linejoin:round;stroke-miterlimit:10;stroke-width:2"/><circle cx="29.1" cy="26.8" fill="#2980ba" r="8.6"/><circle cx="34.3" cy="19.8" fill="#ea685e" r="3"/><circle cx="34.3" cy="33.7" fill="#ea685e" r="3"/><circle cx="21.3" cy="26.8" fill="#ea685e" r="3"/><g style="fill:none;stroke:#2c3e50;stroke-linecap:round;stroke-linejoin:round;stroke-miterlimit:10;stroke-width:2"><circle cx="34.3" cy="19.8" r="3"/><circle cx="34.3" cy="33.7" r="3"/><circle cx="21.3" cy="26.8" r="3"/><path d="m24.2 25.2 7.5-4"/><path d="m23.9 28.1 7.8 4.2"/></g></svg>