<svg enable-background="new 0 0 64 64" viewBox="0 0 64 64" xmlns="http://www.w3.org/2000/svg"><path d="m9 48v-28c0-2.2 1.8-4 4-4h42v32" fill="#4b687f"/><path d="m40 46c0 1.1-.9 2-2 2h-11c-1.1 0-2-.9-2-2h-19v2c0 2.2 1.8 4 4 4h44c2.2 0 4-1.8 4-4v-2z" fill="#b7b7b7"/><path d="m25 46c0 .7.4 1.4 1 1.7l1.6.3h8.5c.2-3 .4-8.5-.6-8.8-1.2-.4-5.2-1.7-5.2-1.7l-3.7 3.3-3.2-3.6s-4.4.8-5.6 1.1-1.9 5.7-2 7.7h.3z" fill="#ea685e"/><g style="fill:none;stroke:#2c3e50;stroke-linecap:round;stroke-linejoin:round;stroke-miterlimit:10;stroke-width:2"><path d="m40 46c0 1.1-.9 2-2 2h-11c-1.1 0-2-.9-2-2h-19v2c0 2.2 1.8 4 4 4h44c2.2 0 4-1.8 4-4v-2z"/><path d="m31 16h-18c-2.2 0-4 1.8-4 4v26"/><path d="m55 46v-16"/><path d="m36.6 43.8c0-2-.1-4.8-1.3-5.1s-5.3-1.4-5.3-1.4l-3.5 3.5-3.4-3.5s-4.3 1.1-5.6 1.4c-1.2.3-1.5 3.1-1.5 5.1"/></g><path d="m30.6 25.9c-.6-2.7-3.1-3.1-4.3-3.1-1.5 0-3.9.3-4.3 3.5-.3 2.4.8 5.6 1.6 6.6.9 1.2 1.7 1.8 2.9 1.8 1.1 0 1.8-.5 2.8-1.9.8-1.4 1.8-4.7 1.3-6.9z" fill="#d4c8bc"/><path d="m30.6 25.9c-.6-2.7-3.1-3.1-4.3-3.1-1.5 0-3.9.3-4.3 3.5-.3 2.4.8 5.6 1.6 6.6.9 1.2 1.7 1.8 2.9 1.8 1.1 0 1.8-.5 2.8-1.9.8-1.4 1.8-4.7 1.3-6.9z" style="fill:none;stroke:#2c3e50;stroke-linecap:round;stroke-linejoin:round;stroke-miterlimit:10;stroke-width:2"/><path d="m55 24v-10c0-1.1-.9-2-2-2h-16c-1.1 0-2 .9-2 2v10c0 1.1.9 2 2 2h3v3.7l4.6-3.7h8.4c1.1 0 2-.9 2-2z" fill="#ffd766"/><path d="m55 24v-10c0-1.1-.9-2-2-2h-16c-1.1 0-2 .9-2 2v10c0 1.1.9 2 2 2h3v3.7l4.6-3.7h8.4c1.1 0 2-.9 2-2z" style="fill:none;stroke:#2c3e50;stroke-linecap:round;stroke-linejoin:round;stroke-miterlimit:10;stroke-width:2"/></svg>