<svg enable-background="new 0 0 64 64" viewBox="0 0 64 64" xmlns="http://www.w3.org/2000/svg"><path d="m29.1 8c-.8-.3-1.7-.6-2.8-.6-4.3 0-6.7 3.4-6.7 7.4 0 7.4 12.5 13.7 12.5 13.7s12.5-6.4 12.5-13.7c0-3.9-2.4-7.4-6.7-7.4-4.3 0-5.8 3.4-5.8 3.4-1.5-1.8-3-2.8-3-2.8z" fill="#e64c3c"/><path d="m29.1 8c-.8-.3-1.7-.6-2.8-.6-4.3 0-6.7 3.4-6.7 7.4 0 7.4 12.5 13.7 12.5 13.7s12.5-6.4 12.5-13.7c0-3.9-2.4-7.4-6.7-7.4-4.3 0-5.8 3.4-5.8 3.4" style="fill:none;stroke:#2c3e50;stroke-linecap:round;stroke-linejoin:round;stroke-miterlimit:10;stroke-width:2"/><path d="m43.4 40h-22.2c-1 0-2.2 1.1-2.2 2.1v4.4c0 1 1.2 1.5 2.2 1.5h1.2l1.8 9.9c.2 1 1.1 2.1 2.1 2.1h12c1 0 1.9-1.1 2.1-2.1l1.8-9.9h1.2c1 0 1.6-.5 1.6-1.5v-4.4c0-1-.7-2.1-1.6-2.1z" fill="#8c623b"/><g style="fill:none;stroke:#2c3e50;stroke-linecap:round;stroke-linejoin:round;stroke-miterlimit:10;stroke-width:2"><path d="m43.4 40h-22.2c-1 0-2.2 1.1-2.2 2.1v4.4c0 1 1.2 1.5 2.2 1.5h1.2l1.8 9.9c.2 1 1.1 2.1 2.1 2.1h12c1 0 1.9-1.1 2.1-2.1l1.8-9.9h1.2c1 0 1.6-.5 1.6-1.5v-4.4c0-1-.7-2.1-1.6-2.1z"/><path d="m39 47h-14"/><path d="m32.3 32.2v7.1"/><path d="m27.9 31.5s2.2.8 4.4.8 4.4-.6 4.4-.6"/></g><path d="m52.8 26.3c-2.3 1.7-7.7 1.2-10.7 3.7-1.4 1.1-2.1 2.6-2.2 5.5 0 .5-.1.7.4.7 4 .1 6.4-.2 8.2-1.3 2.7-1.7 3.8-5.9 4.3-8.6z" fill="#7abe90"/><path d="m11.2 26.3c2.3 1.7 7.7 1.2 10.7 3.7 1.4 1.1 2.1 2.6 2.2 5.5 0 .5.1.7-.4.7-4 .1-6.4-.2-8.2-1.3-2.7-1.7-3.8-5.9-4.3-8.6z" fill="#7abe90"/><path d="m52.8 26.3c-2.3 1.7-7.7 1.2-10.7 3.7-1.4 1.1-2.1 2.6-2.2 5.5 0 .5-.1.7.4.7 4 .1 6.4-.2 8.2-1.3 2.7-1.7 3.8-5.9 4.3-8.6z" style="fill:none;stroke:#2c3e50;stroke-linecap:round;stroke-linejoin:round;stroke-miterlimit:10;stroke-width:2"/><path d="m11.2 26.3c2.3 1.7 7.7 1.2 10.7 3.7 1.4 1.1 2.1 2.6 2.2 5.5 0 .5.1.7-.4.7-4 .1-6.4-.2-8.2-1.3-2.7-1.7-3.8-5.9-4.3-8.6z" style="fill:none;stroke:#2c3e50;stroke-linecap:round;stroke-linejoin:round;stroke-miterlimit:10;stroke-width:2"/></svg>