<svg enable-background="new 0 0 64 64" viewBox="0 0 64 64" xmlns="http://www.w3.org/2000/svg"><path d="m36 21h-29c-2.2 0-4 1.8-4 4v18c0 2.2 1.8 4 4 4h4v6l8-6h13.3c2.2 0 4.5-2.3 4.5-4.5" fill="#3b97d3"/><path d="m26 35v-18c0-2.2 1.8-4 4-4h27c2.2 0 4 1.8 4 4v18c0 2.2-1.8 4-4 4h-5v6l-8.7-6h-13.3c-2.2 0-4-1.8-4-4z" fill="#ffd766"/><g style="fill:none;stroke:#2c3e50;stroke-linecap:round;stroke-linejoin:round;stroke-miterlimit:10;stroke-width:2"><path d="m26 35v-18c0-2.2 1.8-4 4-4h27c2.2 0 4 1.8 4 4v18c0 2.2-1.8 4-4 4h-5v6l-8.7-6h-13.3c-2.2 0-4-1.8-4-4z"/><path d="m22 21h-15c-2.2 0-4 1.8-4 4v18c0 2.2 1.8 4 4 4h4v6l8-6h13.3c2.2 0 4.5-2.3 4.5-4.5"/><path d="m34 22h8.1s-2.5 6.5-7.8 8"/><path d="m38 34v-5.8l3.5 1"/><path d="m38 22v-3"/><path d="m45 22h8v6h-8z"/><path d="m45 25h8"/><path d="m46 32h6"/><path d="m44.6 19 2.1 3"/><path d="m48 19 1 3v12"/><path d="m53 19-1.7 3"/><path d="m9.9 38.1 2.4-8.1 2.4 8.1"/><path d="m10.6 35.7h3.3"/><path d="m18 38v-8h2s1.9.1 1.9 1.3-.8 1.7-1.8 1.7-2.1 0-2.1 0h2.4s2.4-.1 2.4 2.7c0 2.1-1 2.3-2.4 2.3s-2.4 0-2.4 0z"/></g></svg>