<svg enable-background="new 0 0 64 64" viewBox="0 0 64 64" xmlns="http://www.w3.org/2000/svg"><path d="m60.4 53.7-21.1-31.9c-.7-1.1-2.4-1.1-3.1 0l-4.7 7.3-5.1-7.3c-.7-1.1-2.4-1.1-3.1 0l-19.7 31.9z" fill="#8c623b"/><path d="m36.2 21.8-9.7 15.2-.1.3 7.1-.7 2.1 4.6 4.1-5.5 11.8 17.9h8.9l-21.1-31.8c-.8-1.1-2.4-1.1-3.1 0z" fill="#fff"/><path d="m26.5 37.3 7-.7 2.2 4.6 4.1-5.5 11.8 18" style="fill:none;stroke:#2c3e50;stroke-linecap:round;stroke-linejoin:round;stroke-miterlimit:10;stroke-width:2"/><path d="m23.4 21.8-4.8 7.8 4.1-2.3 2.1 4.6 6.6-2.7-4.9-7.4c-.7-1.1-2.4-1.1-3.1 0z" fill="#fff"/><g style="fill:none;stroke:#2c3e50;stroke-linecap:round;stroke-linejoin:round;stroke-miterlimit:10;stroke-width:2"><path d="m18.6 29.6 4.1-2.3 2.1 4.6 6.6-2.7"/><path d="m44 35.7 11.8 18"/><path d="m16 53.7 20.2-31.9c.7-1.1 2.4-1.2 3.1 0l21.2 31.9"/><path d="m3.6 53.7 19.8-31.9c.7-1.1 2.4-1.2 3.1 0l4.9 7.4"/></g><path d="m25 10h10l-2 3.3 2 2.7h-10" fill="#ea685e"/><path d="m25 20v-10" style="fill:none;stroke:#2c3e50;stroke-linecap:round;stroke-linejoin:round;stroke-miterlimit:10;stroke-width:2"/><path d="m28 10h7l-2 3.3 2 2.7h-7" style="fill:none;stroke:#2c3e50;stroke-linecap:round;stroke-linejoin:round;stroke-miterlimit:10;stroke-width:2"/></svg>