<svg enable-background="new 0 0 64 64" viewBox="0 0 64 64" xmlns="http://www.w3.org/2000/svg"><path d="m14 9h32.9c2.8 0 5 2.2 5 5v17.6l.1 19.4c0 2.8-2.2 5-5 5h-33" fill="#e5e5e5"/><path d="m33.4 43.4s-2.6-9.1 9.6-15.2c-.5 2.6-.7 3.4-.7 3.4l3.1-4.6s10.4-1 14.4-6.1c-1 3.9-3.1 7.1-3.1 7.1l-2.9 2 2.3-.2s-1.5 3.9-3.4 5.6c-1 .2-4.7.5-4.7.5l3.2 1.4s-2.2 2.6-4.1 3.9c-2.1.6-6-1.2-6-1.2s.9 1.6 3.1 2.3c-2.5 2.3-8.2 1.6-10.8 1.1z" fill="#ffd766"/><path d="m33.4 43.4s-2.6-9.1 9.6-15.2c-.5 2.6-.7 3.4-.7 3.4l3.1-4.6s10.4-1 14.4-6.1c-1 3.9-3.1 7.1-3.1 7.1l-2.9 2 2.3-.2s-1.5 3.9-3.4 5.6c-1 .2-4.7.5-4.7.5l3.2 1.4s-2.2 2.6-4.1 3.9c-2.1.6-6-1.2-6-1.2s.9 1.6 3.1 2.3c-2.5 2.3-8.2 1.6-10.8 1.1z" style="fill:none;stroke:#2c3e50;stroke-linecap:round;stroke-linejoin:round;stroke-miterlimit:10;stroke-width:2"/><path d="m29 50s4.4-11 20.3-19.8" style="fill:none;stroke:#2c3e50;stroke-linecap:round;stroke-linejoin:round;stroke-miterlimit:10;stroke-width:2"/><path d="m15 51c0 2.8-2.2 5-5 5h.2c-2.9 0-5.2-2-5.2-5h7" fill="#b7b7b7"/><path d="m15 14c0-2.8-2.2-5-5-5h.2c-2.9 0-5.2 2-5.2 5h7" fill="#b7b7b7"/><g style="fill:none;stroke:#2c3e50;stroke-linecap:round;stroke-linejoin:round;stroke-miterlimit:10;stroke-width:2"><path d="m52 41.5v9.5c0 2.8-2.2 5-5 5h-36.8c-2.9 0-5.2-2-5.2-5h7"/><path d="m10 9h36.9c2.8 0 5 2.2 5 5v7.8"/><path d="m10.3 56c5.1 0 4.7-5.5 4.7-5.5v-36.5c0-2.8-2.2-5-5-5s-5 2.2-5 5h7"/><path d="m25 17h18"/><path d="m25 22h18"/><path d="m25 27h13"/></g></svg>