<svg enable-background="new 0 0 64 64" viewBox="0 0 64 64" xmlns="http://www.w3.org/2000/svg"><path d="m21.6 45.8-9.8 2.5c-.5.1-.9-.3-.8-.8l2.5-9.9 2.8-2.3 7.7 7.6z" fill="#ffd766"/><path d="m23.5 43.3 23.7-23.6-1.1-4-2.5-2.5-4-1.2-23.7 23.7" fill="#7abe90"/><path d="m23.5 43.3 23.7-23.6-1.1-4-1.2-1.2-25.2 24.9z" fill="#00a388"/><g style="fill:none;stroke:#2c3e50;stroke-linecap:round;stroke-linejoin:round;stroke-miterlimit:10;stroke-width:2"><path d="m23.5 43.3 23.7-23.6-1.1-4-2.5-2.5-4-1.2-23.7 23.7"/><path d="m42.2 17.1-22.5 22.4"/><path d="m20.8 46.1-9 2.3c-.5.1-.9-.3-.8-.8l2.3-9"/><path d="m53 52h-41"/><path d="m11.7 45 2.5 2.6"/></g></svg>