<?xml version="1.0" ?><svg id="Layer_1" style="enable-background:new 0 0 128 128;" version="1.1" viewBox="0 0 128 128" xml:space="preserve" xmlns="http://www.w3.org/2000/svg" xmlns:xlink="http://www.w3.org/1999/xlink"><style type="text/css">
	.st0{fill-rule:evenodd;clip-rule:evenodd;}
	.st1{fill-rule:evenodd;clip-rule:evenodd;fill:#7ACED7;}
</style><g id="XMLID_9_"><path class="st0" d="M4.2,0.1H124c2.2,0,4,1.8,4,4v101.8c0.1,0.3,0.1,0.6,0,0.8v17.1c0,2.2-1.8,4-4,4H4.2   c-2.2,0-4-1.8-4-4V110c-0.3-0.6-0.3-1.3,0-1.8V4.1C0.3,1.9,2.1,0.1,4.2,0.1L4.2,0.1z M72.6,85.6l20.3-16.4c0.8-0.7,2-0.6,2.7,0.2   l28.4,31.8v-97H4.2v99.6L44.7,59c0.4-0.4,0.9-0.7,1.5-0.7c0.6,0,1.1,0.2,1.5,0.6L72.6,85.6L72.6,85.6z M124,107.1L93.9,73.4   L73.6,89.8c-0.8,0.7-2,0.6-2.7-0.2L46.3,63.3l-42,46.4v14.2H124V107.1L124,107.1z M95.9,16.5c-8.6,0-15.6,7-15.6,15.6   c0,8.6,7,15.6,15.6,15.6c8.6,0,15.6-7,15.6-15.6C111.6,23.4,104.6,16.5,95.9,16.5L95.9,16.5z M95.9,20.4c-6.4,0-11.7,5.2-11.7,11.7   c0,6.4,5.2,11.7,11.7,11.7c6.4,0,11.7-5.2,11.7-11.7C107.6,25.6,102.4,20.4,95.9,20.4z" id="XMLID_13_"/><path class="st1" d="M72.6,85.6l20.3-16.4c0.8-0.7,2-0.6,2.7,0.2l28.4,31.8v-97H4.2v99.6L44.7,59   c0.4-0.4,0.9-0.7,1.5-0.7c0.6,0,1.1,0.2,1.5,0.6L72.6,85.6L72.6,85.6z M95.9,16.5c8.6,0,15.6,7,15.6,15.6c0,8.6-7,15.6-15.6,15.6   c-8.6,0-15.6-7-15.6-15.6C80.3,23.4,87.3,16.5,95.9,16.5z" id="XMLID_10_"/></g></svg>