<?xml version="1.0" encoding="UTF-8"?>
<svg width="564px" height="365px" viewBox="0 0 564 365" version="1.1" xmlns="http://www.w3.org/2000/svg" xmlns:xlink="http://www.w3.org/1999/xlink">
    <!-- Generator: Sketch 46 (44423) - http://www.bohemiancoding.com/sketch -->
    <title>temp_image</title>
    <desc>Created with Sketch.</desc>
    <defs></defs>
    <g id="Page-1" stroke="none" stroke-width="1" fill="none" fill-rule="evenodd">
        <g id="temp_image">
            <rect id="Rectangle" fill="#F1F1F1" x="0" y="0" width="564" height="365"></rect>
            <g id="if_18.Pictures-Day_290132" transform="translate(218.000000, 136.000000)" fill-rule="nonzero" fill="#B4B4B4">
                <path d="M115.956522,94 L11.0434783,94 C4.94471739,94 0,89.0484118 0,82.9411765 L0,11.0588235 C0,4.95158824 4.94471739,0 11.0434783,0 L115.956522,0 C122.055283,0 127,4.95158824 127,11.0588235 L127,82.9411765 C127,89.0484118 122.055283,94 115.956522,94 Z M121.478261,11.0588235 C121.478261,8.00658824 119.004522,5.52941176 115.956522,5.52941176 L11.0434783,5.52941176 C7.99547826,5.52941176 5.52173913,8.00658824 5.52173913,11.0588235 L5.52173913,82.9411765 C5.52173913,85.9934118 7.99547826,88.4705882 11.0434783,88.4705882 L115.956522,88.4705882 C119.004522,88.4705882 121.478261,85.9934118 121.478261,82.9411765 L121.478261,11.0588235 Z M111.356913,76.6238235 L93.8695652,59.1121765 L83.8779783,69.1176471 L93.0827174,78.3351765 C94.1346087,79.3885294 94.1346087,81.0971176 93.0827174,82.1532353 C92.0280652,83.2065882 90.3218478,83.2065882 89.2699565,82.1532353 L49.6956522,42.5239412 L15.643087,76.6238235 C14.5911957,77.6771765 12.8849783,77.6771765 11.8303261,76.6238235 C10.7784348,75.5677059 10.7784348,73.8591176 11.8303261,72.8057647 L47.4593478,37.1272353 C47.5476957,36.9945294 47.6056739,36.848 47.7216304,36.7291176 C48.2655217,36.1844706 48.9833478,35.9356471 49.6956522,35.9522353 C50.4079565,35.9356471 51.1257826,36.1844706 51.6696739,36.7291176 C51.7856304,36.848 51.8408478,36.9945294 51.9319565,37.1272353 L80.0652174,65.2995882 L91.6332609,53.7154706 C91.7243696,53.5855294 91.779587,53.4362353 91.8955435,53.3173529 C92.4394348,52.7754706 93.1572609,52.5238824 93.8695652,52.5404706 C94.5818696,52.5238824 95.2996957,52.7754706 95.843587,53.3173529 C95.9595435,53.4362353 96.0147609,53.5855294 96.1058696,53.7154706 L115.169674,72.8057647 C116.221565,73.8591176 116.221565,75.5677059 115.169674,76.6238235 C114.115022,77.6771765 112.408804,77.6771765 111.356913,76.6238235 Z M77.3043478,33.1764706 C71.205587,33.1764706 66.2608696,28.2248824 66.2608696,22.1176471 C66.2608696,16.0104118 71.205587,11.0588235 77.3043478,11.0588235 C83.4031087,11.0588235 88.3478261,16.0104118 88.3478261,22.1176471 C88.3478261,28.2248824 83.4031087,33.1764706 77.3043478,33.1764706 Z M77.3043478,16.5882353 C74.2563478,16.5882353 71.7826087,19.0654118 71.7826087,22.1176471 C71.7826087,25.1698824 74.2563478,27.6470588 77.3043478,27.6470588 C80.3523478,27.6470588 82.826087,25.1698824 82.826087,22.1176471 C82.826087,19.0654118 80.3523478,16.5882353 77.3043478,16.5882353 Z" id="Shape"></path>
            </g>
            <path d="M232.746582,260 L231.340332,260 L231.340332,249.335938 L232.746582,249.335938 L232.746582,260 Z M236.379395,252.075195 L236.416016,252.954102 C236.997073,252.270504 237.780757,251.928711 238.76709,251.928711 C239.875494,251.928711 240.629881,252.353511 241.030273,253.203125 C241.293947,252.822264 241.636961,252.51465 242.059326,252.280273 C242.481692,252.045897 242.980954,251.928711 243.557129,251.928711 C245.295419,251.928711 246.179199,252.849112 246.208496,254.689941 L246.208496,260 L244.853516,260 L244.853516,254.770508 C244.853516,254.204099 244.724122,253.780519 244.465332,253.499756 C244.206542,253.218993 243.771976,253.078613 243.161621,253.078613 C242.658689,253.078613 242.241213,253.228758 241.90918,253.529053 C241.577147,253.829347 241.384278,254.233396 241.330566,254.741211 L241.330566,260 L239.968262,260 L239.968262,254.807129 C239.968262,253.654779 239.404303,253.078613 238.276367,253.078613 C237.387691,253.078613 236.779787,253.457027 236.452637,254.213867 L236.452637,260 L235.097656,260 L235.097656,252.075195 L236.379395,252.075195 Z M253.144531,260 C253.066406,259.843749 253.00293,259.565432 252.954102,259.165039 C252.324216,259.819339 251.57227,260.146484 250.698242,260.146484 C249.916988,260.146484 249.276126,259.925539 248.775635,259.483643 C248.275144,259.041746 248.024902,258.481449 248.024902,257.802734 C248.024902,256.977535 248.33862,256.336672 248.966064,255.880127 C249.593509,255.423582 250.476069,255.195312 251.61377,255.195312 L252.932129,255.195312 L252.932129,254.572754 C252.932129,254.099119 252.790529,253.721925 252.507324,253.441162 C252.22412,253.160399 251.806643,253.02002 251.254883,253.02002 C250.771482,253.02002 250.366213,253.142089 250.039062,253.38623 C249.711912,253.630372 249.54834,253.92578 249.54834,254.272461 L248.186035,254.272461 C248.186035,253.876951 248.326415,253.494875 248.607178,253.126221 C248.887941,252.757567 249.268796,252.465821 249.749756,252.250977 C250.230715,252.036132 250.759274,251.928711 251.335449,251.928711 C252.24854,251.928711 252.963865,252.15698 253.481445,252.613525 C253.999026,253.070071 254.267578,253.698726 254.287109,254.499512 L254.287109,258.146973 C254.287109,258.874515 254.379882,259.453123 254.56543,259.882812 L254.56543,260 L253.144531,260 Z M250.895996,258.967285 C251.320803,258.967285 251.723631,258.857423 252.104492,258.637695 C252.485353,258.417968 252.76123,258.132326 252.932129,257.780762 L252.932129,256.154785 L251.870117,256.154785 C250.209953,256.154785 249.379883,256.64062 249.379883,257.612305 C249.379883,258.037111 249.521483,258.369139 249.804688,258.608398 C250.087892,258.847657 250.451658,258.967285 250.895996,258.967285 Z M256.088867,255.97168 C256.088867,254.736322 256.374509,253.753666 256.945801,253.023682 C257.517093,252.293698 258.273921,251.928711 259.216309,251.928711 C260.18311,251.928711 260.937497,252.270504 261.479492,252.954102 L261.54541,252.075195 L262.783203,252.075195 L262.783203,259.80957 C262.783203,260.834966 262.479251,261.643063 261.871338,262.233887 C261.263425,262.82471 260.446782,263.120117 259.421387,263.120117 C258.850095,263.120117 258.291018,262.998048 257.744141,262.753906 C257.197263,262.509764 256.779787,262.175295 256.491699,261.750488 L257.194824,260.9375 C257.775882,261.655277 258.486324,262.01416 259.326172,262.01416 C259.985355,262.01416 260.499266,261.828615 260.86792,261.45752 C261.236574,261.086424 261.420898,260.563968 261.420898,259.890137 L261.420898,259.208984 C260.878904,259.833987 260.139165,260.146484 259.20166,260.146484 C258.273921,260.146484 257.523196,259.772953 256.949463,259.025879 C256.37573,258.278805 256.088867,257.260749 256.088867,255.97168 Z M257.451172,256.125488 C257.451172,257.019047 257.634276,257.720945 258.000488,258.231201 C258.366701,258.741458 258.879391,258.996582 259.538574,258.996582 C260.393071,258.996582 261.020506,258.608402 261.420898,257.832031 L261.420898,254.213867 C261.005857,253.457027 260.383305,253.078613 259.553223,253.078613 C258.89404,253.078613 258.378908,253.334958 258.007812,253.847656 C257.636717,254.360354 257.451172,255.119624 257.451172,256.125488 Z M268.115234,260.146484 C267.04101,260.146484 266.166996,259.793705 265.493164,259.088135 C264.819333,258.382565 264.482422,257.438971 264.482422,256.257324 L264.482422,256.008301 C264.482422,255.222164 264.632567,254.520267 264.932861,253.902588 C265.233156,253.284909 265.653073,252.801515 266.192627,252.452393 C266.73218,252.10327 267.316891,251.928711 267.946777,251.928711 C268.977056,251.928711 269.777829,252.268063 270.349121,252.946777 C270.920413,253.625492 271.206055,254.597162 271.206055,255.861816 L271.206055,256.425781 L265.837402,256.425781 C265.856934,257.207035 266.085203,257.838132 266.522217,258.319092 C266.959231,258.800051 267.514645,259.040527 268.188477,259.040527 C268.666995,259.040527 269.072264,258.942872 269.404297,258.747559 C269.73633,258.552245 270.026854,258.293459 270.275879,257.971191 L271.103516,258.615723 C270.43945,259.636236 269.443366,260.146484 268.115234,260.146484 Z M267.946777,253.041992 C267.3999,253.041992 266.94092,253.240965 266.569824,253.638916 C266.198729,254.036867 265.969239,254.594723 265.881348,255.3125 L269.851074,255.3125 L269.851074,255.209961 C269.812012,254.521481 269.626467,253.988039 269.294434,253.609619 C268.962401,253.231199 268.513186,253.041992 267.946777,253.041992 Z M277.958984,260 L276.604004,260 L276.604004,248.75 L277.958984,248.75 L277.958984,260 Z M279.768066,255.964355 C279.768066,255.187984 279.920653,254.489749 280.22583,253.869629 C280.531007,253.249509 280.955808,252.770998 281.500244,252.434082 C282.04468,252.097166 282.666012,251.928711 283.364258,251.928711 C284.443365,251.928711 285.316159,252.302242 285.982666,253.049316 C286.649173,253.79639 286.982422,254.790033 286.982422,256.030273 L286.982422,256.125488 C286.982422,256.896977 286.834718,257.589108 286.539307,258.201904 C286.243895,258.8147 285.821536,259.29199 285.272217,259.633789 C284.722898,259.975588 284.0918,260.146484 283.378906,260.146484 C282.304682,260.146484 281.43433,259.772953 280.767822,259.025879 C280.101315,258.278805 279.768066,257.290045 279.768066,256.05957 L279.768066,255.964355 Z M281.130371,256.125488 C281.130371,257.004399 281.334226,257.709958 281.741943,258.242188 C282.14966,258.774417 282.695309,259.040527 283.378906,259.040527 C284.067386,259.040527 284.614256,258.770755 285.019531,258.231201 C285.424807,257.691648 285.627441,256.93604 285.627441,255.964355 C285.627441,255.09521 285.421145,254.390872 285.008545,253.851318 C284.595945,253.311765 284.047855,253.041992 283.364258,253.041992 C282.695309,253.041992 282.155764,253.308103 281.745605,253.840332 C281.335447,254.372561 281.130371,255.134272 281.130371,256.125488 Z M293.574219,260 C293.496093,259.843749 293.432617,259.565432 293.383789,259.165039 C292.753903,259.819339 292.001957,260.146484 291.12793,260.146484 C290.346676,260.146484 289.705813,259.925539 289.205322,259.483643 C288.704831,259.041746 288.45459,258.481449 288.45459,257.802734 C288.45459,256.977535 288.768307,256.336672 289.395752,255.880127 C290.023196,255.423582 290.905756,255.195312 292.043457,255.195312 L293.361816,255.195312 L293.361816,254.572754 C293.361816,254.099119 293.220216,253.721925 292.937012,253.441162 C292.653807,253.160399 292.236331,253.02002 291.68457,253.02002 C291.201169,253.02002 290.7959,253.142089 290.46875,253.38623 C290.1416,253.630372 289.978027,253.92578 289.978027,254.272461 L288.615723,254.272461 C288.615723,253.876951 288.756102,253.494875 289.036865,253.126221 C289.317628,252.757567 289.698484,252.465821 290.179443,252.250977 C290.660403,252.036132 291.188962,251.928711 291.765137,251.928711 C292.678227,251.928711 293.393552,252.15698 293.911133,252.613525 C294.428714,253.070071 294.697266,253.698726 294.716797,254.499512 L294.716797,258.146973 C294.716797,258.874515 294.809569,259.453123 294.995117,259.882812 L294.995117,260 L293.574219,260 Z M291.325684,258.967285 C291.75049,258.967285 292.153318,258.857423 292.53418,258.637695 C292.915041,258.417968 293.190917,258.132326 293.361816,257.780762 L293.361816,256.154785 L292.299805,256.154785 C290.63964,256.154785 289.80957,256.64062 289.80957,257.612305 C289.80957,258.037111 289.95117,258.369139 290.234375,258.608398 C290.51758,258.847657 290.881345,258.967285 291.325684,258.967285 Z M296.51123,255.97168 C296.51123,254.755853 296.799314,253.77808 297.375488,253.03833 C297.951663,252.29858 298.70605,251.928711 299.638672,251.928711 C300.566411,251.928711 301.301267,252.246091 301.843262,252.880859 L301.843262,248.75 L303.198242,248.75 L303.198242,260 L301.953125,260 L301.887207,259.150391 C301.345212,259.814456 300.590825,260.146484 299.624023,260.146484 C298.70605,260.146484 297.957767,259.770512 297.37915,259.018555 C296.800534,258.266598 296.51123,257.285162 296.51123,256.074219 L296.51123,255.97168 Z M297.866211,256.125488 C297.866211,257.02393 298.051756,257.727048 298.422852,258.234863 C298.793947,258.742678 299.306637,258.996582 299.960938,258.996582 C300.820317,258.996582 301.447752,258.610844 301.843262,257.839355 L301.843262,254.199219 C301.437986,253.452145 300.815434,253.078613 299.975586,253.078613 C299.31152,253.078613 298.793947,253.334958 298.422852,253.847656 C298.051756,254.360354 297.866211,255.119624 297.866211,256.125488 Z M306.772461,260 L305.41748,260 L305.41748,252.075195 L306.772461,252.075195 L306.772461,260 Z M305.307617,249.973145 C305.307617,249.753417 305.374755,249.567872 305.509033,249.416504 C305.643311,249.265136 305.842284,249.189453 306.105957,249.189453 C306.36963,249.189453 306.569824,249.265136 306.706543,249.416504 C306.843262,249.567872 306.911621,249.753417 306.911621,249.973145 C306.911621,250.192872 306.843262,250.375976 306.706543,250.522461 C306.569824,250.668946 306.36963,250.742188 306.105957,250.742188 C305.842284,250.742188 305.643311,250.668946 305.509033,250.522461 C305.374755,250.375976 305.307617,250.192872 305.307617,249.973145 Z M310.222168,252.075195 L310.266113,253.071289 C310.871585,252.309567 311.662593,251.928711 312.63916,251.928711 C314.313973,251.928711 315.158691,252.873526 315.17334,254.763184 L315.17334,260 L313.818359,260 L313.818359,254.755859 C313.813477,254.184567 313.682863,253.762208 313.426514,253.48877 C313.170165,253.215331 312.770999,253.078613 312.229004,253.078613 C311.789549,253.078613 311.40381,253.1958 311.071777,253.430176 C310.739744,253.664552 310.480958,253.972166 310.29541,254.353027 L310.29541,260 L308.94043,260 L308.94043,252.075195 L310.222168,252.075195 Z M316.894531,255.97168 C316.894531,254.736322 317.180173,253.753666 317.751465,253.023682 C318.322757,252.293698 319.079585,251.928711 320.021973,251.928711 C320.988774,251.928711 321.743161,252.270504 322.285156,252.954102 L322.351074,252.075195 L323.588867,252.075195 L323.588867,259.80957 C323.588867,260.834966 323.284915,261.643063 322.677002,262.233887 C322.069089,262.82471 321.252447,263.120117 320.227051,263.120117 C319.655759,263.120117 319.096682,262.998048 318.549805,262.753906 C318.002927,262.509764 317.585451,262.175295 317.297363,261.750488 L318.000488,260.9375 C318.581546,261.655277 319.291988,262.01416 320.131836,262.01416 C320.791019,262.01416 321.30493,261.828615 321.673584,261.45752 C322.042238,261.086424 322.226562,260.563968 322.226562,259.890137 L322.226562,259.208984 C321.684568,259.833987 320.944829,260.146484 320.007324,260.146484 C319.079585,260.146484 318.32886,259.772953 317.755127,259.025879 C317.181394,258.278805 316.894531,257.260749 316.894531,255.97168 Z M318.256836,256.125488 C318.256836,257.019047 318.43994,257.720945 318.806152,258.231201 C319.172365,258.741458 319.685055,258.996582 320.344238,258.996582 C321.198735,258.996582 321.82617,258.608402 322.226562,257.832031 L322.226562,254.213867 C321.811521,253.457027 321.188969,253.078613 320.358887,253.078613 C319.699704,253.078613 319.184572,253.334958 318.813477,253.847656 C318.442381,254.360354 318.256836,255.119624 318.256836,256.125488 Z M325.690918,259.289551 C325.690918,259.055175 325.760497,258.859864 325.899658,258.703613 C326.038819,258.547363 326.247557,258.469238 326.525879,258.469238 C326.804201,258.469238 327.01538,258.547363 327.159424,258.703613 C327.303468,258.859864 327.375488,259.055175 327.375488,259.289551 C327.375488,259.514161 327.303468,259.702148 327.159424,259.853516 C327.01538,260.004884 326.804201,260.080566 326.525879,260.080566 C326.247557,260.080566 326.038819,260.004884 325.899658,259.853516 C325.760497,259.702148 325.690918,259.514161 325.690918,259.289551 Z M328.891602,259.289551 C328.891602,259.055175 328.961181,258.859864 329.100342,258.703613 C329.239503,258.547363 329.448241,258.469238 329.726562,258.469238 C330.004884,258.469238 330.216064,258.547363 330.360107,258.703613 C330.504151,258.859864 330.576172,259.055175 330.576172,259.289551 C330.576172,259.514161 330.504151,259.702148 330.360107,259.853516 C330.216064,260.004884 330.004884,260.080566 329.726562,260.080566 C329.448241,260.080566 329.239503,260.004884 329.100342,259.853516 C328.961181,259.702148 328.891602,259.514161 328.891602,259.289551 Z M331.931152,259.289551 C331.931152,259.055175 332.000732,258.859864 332.139893,258.703613 C332.279053,258.547363 332.487792,258.469238 332.766113,258.469238 C333.044435,258.469238 333.255615,258.547363 333.399658,258.703613 C333.543702,258.859864 333.615723,259.055175 333.615723,259.289551 C333.615723,259.514161 333.543702,259.702148 333.399658,259.853516 C333.255615,260.004884 333.044435,260.080566 332.766113,260.080566 C332.487792,260.080566 332.279053,260.004884 332.139893,259.853516 C332.000732,259.702148 331.931152,259.514161 331.931152,259.289551 Z" id="Image-loading…" fill="#B4B4B4"></path>
        </g>
    </g>
</svg>