<svg height="365" viewBox="0 0 564 365" width="564" xmlns="http://www.w3.org/2000/svg"><g fill="none" fill-rule="evenodd"><path d="m0 0h564v365h-564z" fill="#f1f1f1"/><g fill="#b4b4b4"><path d="m115.956522 94h-104.9130437c-6.09876091 0-11.0434783-4.9515882-11.0434783-11.0588235v-71.882353c0-6.10723526 4.94471739-11.0588235 11.0434783-11.0588235h104.9130437c6.098761 0 11.043478 4.95158824 11.043478 11.0588235v71.882353c0 6.1072353-4.944717 11.0588235-11.043478 11.0588235zm5.521739-82.9411765c0-3.05223526-2.473739-5.52941174-5.521739-5.52941174h-104.9130437c-3.04800004 0-5.52173917 2.47717648-5.52173917 5.52941174v71.882353c0 3.0522353 2.47373913 5.5294117 5.52173917 5.5294117h104.9130437c3.048 0 5.521739-2.4771764 5.521739-5.5294117zm-10.121348 65.565-17.4873478-17.511647-9.9915869 10.0054706 9.2047391 9.2175294c1.0518913 1.0533529 1.0518913 2.7619411 0 3.8180588-1.0546522 1.0533529-2.7608696 1.0533529-3.8127609 0l-39.5743043-39.6292941-34.0525652 34.0998823c-1.0518913 1.053353-2.7581087 1.053353-3.8127609 0-1.0518913-1.0561176-1.0518913-2.7647059 0-3.8180588l35.6290217-35.6785294c.0883479-.1327059.1463261-.2792353.2622826-.3981177.5438913-.544647 1.2617174-.7934705 1.9740218-.7768823.7123043-.0165882 1.4301304.2322353 1.9740217.7768823.1159565.1188824.1711739.2654118.2622826.3981177l28.1332609 28.1723529 11.5680435-11.5841176c.0911087-.1299412.1463261-.2792353.2622826-.3981177.5438913-.5418823 1.2617174-.7934705 1.9740217-.7768823.7123044-.0165882 1.4301305.235 1.9740218.7768823.1159565.1188824.1711739.2681765.2622826.3981177l19.0638044 19.0902941c1.051891 1.0533529 1.051891 2.7619412 0 3.8180588-1.054652 1.053353-2.76087 1.053353-3.812761 0zm-34.0525652-43.4473529c-6.0987608 0-11.0434782-4.9515882-11.0434782-11.0588235s4.9447174-11.0588236 11.0434782-11.0588236c6.0987609 0 11.0434783 4.9515883 11.0434783 11.0588236s-4.9447174 11.0588235-11.0434783 11.0588235zm0-16.5882353c-3.048 0-5.5217391 2.4771765-5.5217391 5.5294118s2.4737391 5.5294117 5.5217391 5.5294117 5.5217392-2.4771764 5.5217392-5.5294117-2.4737392-5.5294118-5.5217392-5.5294118z" fill-rule="nonzero" transform="translate(218 136)"/><path d="m232.746582 260h-1.40625v-10.664062h1.40625zm3.632813-7.924805.036621.878907c.581057-.683598 1.364741-1.025391 2.351074-1.025391 1.108404 0 1.862791.4248 2.263183 1.274414.263674-.380861.606688-.688475 1.029053-.922852.422366-.234376.921628-.351562 1.497803-.351562 1.73829 0 2.62207.920401 2.651367 2.76123v5.310059h-1.35498v-5.229492c0-.566409-.129394-.989989-.388184-1.270752s-.693356-.421143-1.303711-.421143c-.502932 0-.920408.150145-1.252441.45044-.332033.300294-.524902.704343-.578614 1.212158v5.258789h-1.362304v-5.192871c0-1.15235-.563959-1.728516-1.691895-1.728516-.888676 0-1.49658.378414-1.82373 1.135254v5.786133h-1.354981v-7.924805zm16.765136 7.924805c-.078125-.156251-.141601-.434568-.190429-.834961-.629886.6543-1.381832.981445-2.25586.981445-.781254 0-1.422116-.220945-1.922607-.662841-.500491-.441897-.750733-1.002194-.750733-1.680909 0-.825199.313718-1.466062.941162-1.922607.627445-.456545 1.510005-.684815 2.647706-.684815h1.318359v-.622558c0-.473635-.1416-.850829-.424805-1.131592-.283204-.280763-.700681-.421142-1.252441-.421142-.483401 0-.88867.122069-1.215821.36621-.32715.244142-.490722.53955-.490722.886231h-1.362305c0-.39551.14038-.777586.421143-1.14624s.661618-.6604 1.142578-.875244c.480959-.214845 1.009518-.322266 1.585693-.322266.913091 0 1.628416.228269 2.145996.684814.517581.456546.786133 1.085201.805664 1.885987v3.647461c0 .727542.092773 1.30615.278321 1.735839v.117188zm-2.248535-1.032715c.424807 0 .827635-.109862 1.208496-.32959.380861-.219727.656738-.505369.827637-.856933v-1.625977h-1.062012c-1.660164 0-2.490234.485835-2.490234 1.45752 0 .424806.1416.756834.424805.996093.283204.239259.64697.358887 1.091308.358887zm5.192871-2.995605c0-1.235358.285642-2.218014.856934-2.947998s1.32812-1.094971 2.270508-1.094971c.966801 0 1.721188.341793 2.263183 1.025391l.065918-.878907h1.237793v7.734375c0 1.025396-.303952 1.833493-.911865 2.424317-.607913.590823-1.424556.88623-2.449951.88623-.571292 0-1.130369-.122069-1.677246-.366211-.546878-.244142-.964354-.578611-1.252442-1.003418l.703125-.812988c.581058.717777 1.2915 1.07666 2.131348 1.07666.659183 0 1.173094-.185545 1.541748-.55664.368654-.371096.552978-.893552.552978-1.567383v-.681153c-.541994.625003-1.281733.9375-2.219238.9375-.927739 0-1.678464-.373531-2.252197-1.120605s-.860596-1.76513-.860596-3.054199zm1.362305.153808c0 .893559.183104 1.595457.549316 2.105713.366213.510257.878903.765381 1.538086.765381.854497 0 1.481932-.38818 1.882324-1.164551v-3.618164c-.415041-.75684-1.037593-1.135254-1.867675-1.135254-.659183 0-1.174315.256345-1.545411.769043-.371095.512698-.55664 1.271968-.55664 2.277832zm10.664062 4.020996c-1.074224 0-1.948238-.352779-2.62207-1.058349-.673831-.70557-1.010742-1.649164-1.010742-2.830811v-.249023c0-.786137.150145-1.488034.450439-2.105713.300295-.617679.720212-1.101073 1.259766-1.450195.539553-.349123 1.124264-.523682 1.75415-.523682 1.030279 0 1.831052.339352 2.402344 1.018066.571292.678715.856934 1.650385.856934 2.915039v.563965h-5.368653c.019532.781254.247801 1.412351.684815 1.893311.437014.480959.992428.721435 1.66626.721435.478518 0 .883787-.097655 1.21582-.292968.332033-.195314.622557-.4541.871582-.776368l.827637.644532c-.664066 1.020513-1.66015 1.530761-2.988282 1.530761zm-.168457-7.104492c-.546877 0-1.005857.198973-1.376953.596924-.371095.397951-.600585.955807-.688476 1.673584h3.969726v-.102539c-.039062-.68848-.224607-1.221922-.55664-1.600342s-.781248-.567627-1.347657-.567627zm10.012207 6.958008h-1.35498v-11.25h1.35498zm1.809082-4.035645c0-.776371.152587-1.474606.457764-2.094726s.729978-1.098631 1.274414-1.435547 1.165768-.505371 1.864014-.505371c1.079107 0 1.951901.373531 2.618408 1.120605s.999756 1.740717.999756 2.980957v.095215c0 .771489-.147704 1.46362-.443115 2.076416-.295412.612796-.717771 1.090086-1.26709 1.431885s-1.180417.512695-1.893311.512695c-1.074224 0-1.944576-.373531-2.611084-1.120605-.666507-.747074-.999756-1.735834-.999756-2.966309zm1.362305.161133c0 .878911.203855 1.58447.611572 2.1167.407717.532229.953366.798339 1.636963.798339.68848 0 1.23535-.269772 1.640625-.809326.405276-.539553.60791-1.295161.60791-2.266846 0-.869145-.206296-1.573483-.618896-2.113037-.4126-.539553-.96069-.809326-1.644287-.809326-.668949 0-1.208494.266111-1.618653.79834-.410158.532229-.615234 1.29394-.615234 2.285156zm12.443848 3.874512c-.078126-.156251-.141602-.434568-.19043-.834961-.629886.6543-1.381832.981445-2.255859.981445-.781254 0-1.422117-.220945-1.922608-.662841-.500491-.441897-.750732-1.002194-.750732-1.680909 0-.825199.313717-1.466062.941162-1.922607.627444-.456545 1.510004-.684815 2.647705-.684815h1.318359v-.622558c0-.473635-.1416-.850829-.424804-1.131592-.283205-.280763-.700681-.421142-1.252442-.421142-.483401 0-.88867.122069-1.21582.36621-.32715.244142-.490723.53955-.490723.886231h-1.362304c0-.39551.140379-.777586.421142-1.14624s.661619-.6604 1.142578-.875244c.48096-.214845 1.009519-.322266 1.585694-.322266.91309 0 1.628415.228269 2.145996.684814.517581.456546.786133 1.085201.805664 1.885987v3.647461c0 .727542.092772 1.30615.27832 1.735839v.117188zm-2.248535-1.032715c.424806 0 .827634-.109862 1.208496-.32959.380861-.219727.656737-.505369.827636-.856933v-1.625977h-1.062011c-1.660165 0-2.490235.485835-2.490235 1.45752 0 .424806.1416.756834.424805.996093s.64697.358887 1.091309.358887zm5.185546-2.995605c0-1.215827.288084-2.1936.864258-2.93335.576175-.73975 1.330562-1.109619 2.263184-1.109619.927739 0 1.662595.31738 2.20459.952148v-4.130859h1.35498v11.25h-1.245117l-.065918-.849609c-.541995.664065-1.296382.996093-2.263184.996093-.917973 0-1.666256-.375972-2.244873-1.127929-.578616-.751957-.86792-1.733393-.86792-2.944336zm1.354981.153808c0 .898442.185545 1.60156.556641 2.109375.371095.507815.883785.761719 1.538086.761719.859379 0 1.486814-.385738 1.882324-1.157227v-3.640136c-.405276-.747074-1.027828-1.120606-1.867676-1.120606-.664066 0-1.181639.256345-1.552734.769043-.371096.512698-.556641 1.271968-.556641 2.277832zm8.90625 3.874512h-1.354981v-7.924805h1.354981zm-1.464844-10.026855c0-.219728.067138-.405273.201416-.556641s.333251-.227051.596924-.227051.463867.075683.600586.227051.205078.336913.205078.556641c0 .219727-.068359.402831-.205078.549316s-.336913.219727-.600586.219727-.462646-.073242-.596924-.219727-.201416-.329589-.201416-.549316zm4.914551 2.10205.043945.996094c.605472-.761722 1.39648-1.142578 2.373047-1.142578 1.674813 0 2.519531.944815 2.53418 2.834473v5.236816h-1.354981v-5.244141c-.004882-.571292-.135496-.993651-.391845-1.267089-.256349-.273439-.655515-.410157-1.19751-.410157-.439455 0-.825194.117187-1.157227.351563s-.590819.54199-.776367.922851v5.646973h-1.35498v-7.924805zm6.672363 3.896485c0-1.235358.285642-2.218014.856934-2.947998s1.32812-1.094971 2.270508-1.094971c.966801 0 1.721188.341793 2.263183 1.025391l.065918-.878907h1.237793v7.734375c0 1.025396-.303952 1.833493-.911865 2.424317-.607913.590823-1.424555.88623-2.449951.88623-.571292 0-1.130369-.122069-1.677246-.366211-.546878-.244142-.964354-.578611-1.252442-1.003418l.703125-.812988c.581058.717777 1.2915 1.07666 2.131348 1.07666.659183 0 1.173094-.185545 1.541748-.55664.368654-.371096.552978-.893552.552978-1.567383v-.681153c-.541994.625003-1.281733.9375-2.219238.9375-.927739 0-1.678464-.373531-2.252197-1.120605s-.860596-1.76513-.860596-3.054199zm1.362305.153808c0 .893559.183104 1.595457.549316 2.105713.366213.510257.878903.765381 1.538086.765381.854497 0 1.481932-.38818 1.882324-1.164551v-3.618164c-.415041-.75684-1.037593-1.135254-1.867675-1.135254-.659183 0-1.174315.256345-1.54541.769043-.371096.512698-.556641 1.271968-.556641 2.277832zm7.434082 3.164063c0-.234376.069579-.429687.20874-.585938.139161-.15625.347899-.234375.626221-.234375s.489501.078125.633545.234375c.144044.156251.216064.351562.216064.585938 0 .22461-.07202.412597-.216064.563965s-.355223.22705-.633545.22705-.48706-.075682-.626221-.22705-.20874-.339355-.20874-.563965zm3.200684 0c0-.234376.069579-.429687.20874-.585938.139161-.15625.347899-.234375.62622-.234375.278322 0 .489502.078125.633545.234375.144044.156251.216065.351562.216065.585938 0 .22461-.072021.412597-.216065.563965-.144043.151368-.355223.22705-.633545.22705-.278321 0-.487059-.075682-.62622-.22705s-.20874-.339355-.20874-.563965zm3.03955 0c0-.234376.06958-.429687.208741-.585938.13916-.15625.347899-.234375.62622-.234375.278322 0 .489502.078125.633545.234375.144044.156251.216065.351562.216065.585938 0 .22461-.072021.412597-.216065.563965-.144043.151368-.355223.22705-.633545.22705-.278321 0-.48706-.075682-.62622-.22705-.139161-.151368-.208741-.339355-.208741-.563965z"/></g></g></svg>