<svg enable-background="new 0 0 64 64" viewBox="0 0 64 64" xmlns="http://www.w3.org/2000/svg"><g fill="#3b97d3"><path d="m29 52h-16c-1.1 0-2 .9-2 2v2c0 1.1.9 2 2 2h16c1.1 0 2-.9 2-2v-2c0-1.1-.9-2-2-2z"/><path d="m29 46h-16c-1.1 0-2 .9-2 2v2c0 1.1.9 2 2 2h16c1.1 0 2-.9 2-2v-2c0-1.1-.9-2-2-2z"/><path d="m29 40h-16c-1.1 0-2 .9-2 2v2c0 1.1.9 2 2 2h16c1.1 0 2-.9 2-2v-2c0-1.1-.9-2-2-2z"/><path d="m29 34h-16c-1.1 0-2 .9-2 2v2c0 1.1.9 2 2 2h16c1.1 0 2-.9 2-2v-2c0-1.1-.9-2-2-2z"/><path d="m29 28h-16c-1.1 0-2 .9-2 2v2c0 1.1.9 2 2 2h16c1.1 0 2-.9 2-2v-2c0-1.1-.9-2-2-2z"/></g><path d="m29 52h-16c-1.1 0-2 .9-2 2v2c0 1.1.9 2 2 2h16c1.1 0 2-.9 2-2v-2c0-1.1-.9-2-2-2z" style="fill:none;stroke:#2c3e50;stroke-linecap:round;stroke-linejoin:round;stroke-miterlimit:10;stroke-width:2"/><path d="m29 46h-16c-1.1 0-2 .9-2 2v2c0 1.1.9 2 2 2h16c1.1 0 2-.9 2-2v-2c0-1.1-.9-2-2-2z" style="fill:none;stroke:#2c3e50;stroke-linecap:round;stroke-linejoin:round;stroke-miterlimit:10;stroke-width:2"/><path d="m29 40h-16c-1.1 0-2 .9-2 2v2c0 1.1.9 2 2 2h16c1.1 0 2-.9 2-2v-2c0-1.1-.9-2-2-2z" style="fill:none;stroke:#2c3e50;stroke-linecap:round;stroke-linejoin:round;stroke-miterlimit:10;stroke-width:2"/><path d="m29 34h-16c-1.1 0-2 .9-2 2v2c0 1.1.9 2 2 2h16c1.1 0 2-.9 2-2v-2c0-1.1-.9-2-2-2z" style="fill:none;stroke:#2c3e50;stroke-linecap:round;stroke-linejoin:round;stroke-miterlimit:10;stroke-width:2"/><path d="m29 28h-16c-1.1 0-2 .9-2 2v2c0 1.1.9 2 2 2h16c1.1 0 2-.9 2-2v-2c0-1.1-.9-2-2-2z" style="fill:none;stroke:#2c3e50;stroke-linecap:round;stroke-linejoin:round;stroke-miterlimit:10;stroke-width:2"/><path d="m17 12c-1.1 0-6 10.9-6 12v2c0 1.1.9 2 2 2h16c1.1 0 2-.9 2-2v-2c0-1.1-4.9-12-6-12" fill="#e5e5e5"/><path d="m17 12c-1.1 0-6 10.9-6 12v2c0 1.1.9 2 2 2h16c1.1 0 2-.9 2-2v-2c0-1.1-4.9-12-6-12" style="fill:none;stroke:#2c3e50;stroke-linecap:round;stroke-linejoin:round;stroke-miterlimit:10;stroke-width:2"/><path d="m13 12h16" style="fill:none;stroke:#2c3e50;stroke-linecap:round;stroke-linejoin:round;stroke-miterlimit:10;stroke-width:2"/><path d="m16 5h10v4h-10z" fill="#e64c3c"/><path d="m16 5h10v4h-10z" style="fill:none;stroke:#2c3e50;stroke-linecap:round;stroke-linejoin:round;stroke-miterlimit:10;stroke-width:2"/><path d="m40 58h12l1.2-13.7-.2-.1c-1.5-.1-6.2-3.1-8.6-3.1s-4.9 1.9-4.9 1.9l-.8.6z" fill="#3b97d3"/><path d="m38 35 2 23h12l2-23" style="fill:none;stroke:#2c3e50;stroke-linecap:round;stroke-linejoin:round;stroke-miterlimit:10;stroke-width:2"/><path d="m39.5 43s2.5-1.9 4.9-1.9 7.1 3 8.6 3.1" style="fill:none;stroke:#2c3e50;stroke-linecap:round;stroke-linejoin:round;stroke-miterlimit:10;stroke-width:2"/><path d="m51 32.9c0 1.4-1.1 2.5-2.5 2.5s-2.5-1.1-2.5-2.5c0-2.6 2.5-4.6 2.5-4.6s2.5 1.8 2.5 4.6z" fill="#3b97d3"/><path d="m45 26.9c0 1.4-1.1 2.5-2.5 2.5s-2.5-1.1-2.5-2.5c0-2.6 2.5-4.6 2.5-4.6s2.5 1.8 2.5 4.6z" fill="#3b97d3"/><path d="m51 32.9c0 1.4-1.1 2.5-2.5 2.5s-2.5-1.1-2.5-2.5c0-2.6 2.5-4.6 2.5-4.6s2.5 1.8 2.5 4.6z" style="fill:none;stroke:#2c3e50;stroke-linecap:round;stroke-linejoin:round;stroke-miterlimit:10;stroke-width:2"/><path d="m45 26.9c0 1.4-1.1 2.5-2.5 2.5s-2.5-1.1-2.5-2.5c0-2.6 2.5-4.6 2.5-4.6s2.5 1.8 2.5 4.6z" style="fill:none;stroke:#2c3e50;stroke-linecap:round;stroke-linejoin:round;stroke-miterlimit:10;stroke-width:2"/></svg>