<?xml version="1.0" standalone="no"?>
<!DOCTYPE svg PUBLIC "-//W3C//DTD SVG 20010904//EN"
 "http://www.w3.org/TR/2001/REC-SVG-20010904/DTD/svg10.dtd">
<svg version="1.0" xmlns="http://www.w3.org/2000/svg"
 width="700.000000pt" height="700.000000pt" viewBox="0 0 700.000000 700.000000"
 preserveAspectRatio="xMidYMid meet">
<metadata>
Created by potrace 1.11, written by Peter Selinger 2001-2013
</metadata>
<g transform="translate(0.000000,700.000000) scale(0.100000,-0.100000)"
fill="#000000" stroke="none">
<path d="M3204 5680 c-207 -31 -377 -177 -445 -381 -18 -57 -22 -95 -26 -331
l-5 -268 -109 0 c-107 0 -109 1 -109 23 0 27 -42 75 -73 82 -12 3 -420 4 -907
3 -989 -4 -910 2 -1043 -76 -129 -75 -232 -224 -256 -369 -9 -49 -11 -364 -9
-1123 4 -1154 0 -1075 62 -1198 32 -64 122 -161 187 -203 28 -17 80 -43 117
-57 62 -24 82 -26 284 -30 l217 -4 3 -287 c3 -258 5 -290 21 -315 24 -36 70
-55 111 -46 19 4 205 136 461 329 l428 321 737 0 c624 0 745 2 795 15 255 65
485 333 485 565 0 48 -5 64 -25 88 -14 17 -39 33 -54 37 -28 6 -30 9 -36 80
-4 40 -4 78 -1 84 5 8 113 11 344 11 l337 0 472 -326 c321 -221 483 -327 507
-331 23 -4 44 1 66 13 56 33 60 56 60 365 l0 279 261 0 c210 0 272 3 317 16
175 50 317 186 378 364 18 53 19 100 19 1150 l0 1095 -25 65 c-67 170 -174
273 -360 344 l-55 21 -1540 1 c-847 1 -1563 -2 -1591 -6z m3168 -248 c73 -36
124 -87 160 -161 l23 -46 3 -1049 c3 -1157 6 -1091 -60 -1190 -16 -26 -50 -60
-74 -77 -88 -60 -100 -62 -456 -68 l-328 -6 -27 -28 -28 -27 -5 -245 -5 -245
-395 273 -395 272 -780 5 c-514 4 -790 10 -810 17 -135 47 -212 138 -235 274
-12 80 -13 1957 -1 2046 21 145 124 254 265 283 23 4 725 7 1561 7 l1520 -2
67 -33z"/>
<path d="M4088 5001 l-33 -29 -5 -134 -5 -133 -187 -5 c-180 -5 -187 -6 -212
-29 -36 -33 -44 -85 -20 -128 32 -61 46 -63 440 -63 195 0 354 -2 354 -5 0
-34 -157 -258 -250 -358 -123 -131 -281 -238 -417 -281 -109 -36 -146 -124
-78 -191 51 -52 106 -44 273 35 l102 49 0 -242 c0 -269 1 -276 66 -303 53 -22
107 -2 137 51 8 13 14 109 17 276 l5 256 115 -33 c134 -39 177 -42 213 -14 36
28 52 83 37 120 -20 49 -52 67 -170 101 -63 18 -117 34 -119 35 -2 2 27 40 63
86 86 107 187 267 248 393 63 131 64 182 4 223 -30 21 -42 22 -213 22 l-181 0
-3 128 c-3 108 -7 131 -24 154 -42 56 -107 64 -157 19z"/>
<path d="M4835 5021 c-39 -17 -60 -51 -60 -100 0 -40 7 -56 61 -132 l61 -85
-29 -17 c-55 -32 -58 -53 -58 -424 0 -458 -16 -433 263 -433 l177 0 0 -110 0
-110 -116 0 c-137 0 -178 -14 -201 -67 -14 -35 -12 -58 10 -101 20 -42 56 -52
187 -52 l120 0 0 -60 c0 -33 7 -76 15 -96 34 -82 165 -77 194 8 6 17 11 57 11
89 l0 57 130 4 130 3 32 33 c26 26 32 40 32 71 -2 46 -28 86 -68 101 -16 5
-80 10 -142 10 l-114 0 0 110 0 110 178 0 c158 0 180 2 209 20 52 31 55 57 51
437 -3 326 -4 343 -24 369 -11 15 -34 32 -51 38 l-32 11 51 89 c30 54 50 102
51 122 3 94 -101 148 -171 89 -17 -14 -59 -76 -93 -138 -95 -170 -92 -167
-149 -167 l-49 0 -43 131 c-45 138 -73 182 -121 195 -37 9 -74 -2 -102 -31
-41 -40 -41 -68 -5 -181 54 -167 28 -158 -110 41 -118 169 -153 195 -225 166z
m415 -591 l0 -50 -110 0 -110 0 0 50 0 50 110 0 110 0 0 -50z m440 0 l0 -50
-110 0 -110 0 0 50 0 50 110 0 110 0 0 -50z m-440 -325 l0 -55 -110 0 -110 0
0 48 c0 27 3 52 7 55 3 4 53 7 110 7 l103 0 0 -55z m438 -2 l3 -53 -110 0
-111 0 0 55 0 56 108 -3 107 -3 3 -52z"/>
</g>
</svg>
