<svg enable-background="new 0 0 512 512" viewBox="0 0 512 512" xmlns="http://www.w3.org/2000/svg"><circle cx="256" cy="256" fill="#71e2ef" r="256"/><path d="m177.249 325.217 170.017 170.017c87.405-33.364 151.821-113.238 162.992-209.368l-160.297-160.297z" fill="#38c6d9"/><path d="m166.931 188.194s-31.03 25.859-15.515 102.86 22.411 102.284 22.411 102.284h164.347s6.896-25.285 22.411-102.285-15.515-102.86-15.515-102.86z" fill="#2d2d2d"/><path d="m345.069 188.194h-90.505v205.145h83.609s6.896-25.285 22.411-102.285-15.515-102.86-15.515-102.86z" fill="#2d2d2d"/><path d="m214.626 295.253h82.747v101.136h-82.747z" fill="#fcd088"/><path d="m254.569 295.253h42.81v101.136h-42.81z" fill="#ddab62"/><path d="m347.529 205.44c.459-4.244.698-8.428.698-12.509 0-53.974-41.293-97.728-92.229-97.728s-92.229 43.754-92.229 97.728c0 4.08.24 8.264.698 12.509-8.945 2.326-13.202 16.087-9.506 30.817 3.708 14.776 14.014 24.921 23.018 22.661.821-.205 1.586-.538 2.326-.927 16.667 33.452 44.351 60.594 75.693 60.594s59.027-27.139 75.693-60.594c.74.39 1.505.722 2.326.927 9.004 2.26 19.309-7.885 23.018-22.661 3.697-14.73-.559-28.494-9.506-30.817z" fill="#ffedb5"/><path d="m347.529 205.44c.459-4.244.698-8.428.698-12.509 0-53.974-41.293-97.728-92.229-97.728-.481 0-.955.031-1.436.038v223.303c.479.012.955.038 1.436.038 31.342 0 59.027-27.139 75.693-60.592.74.39 1.505.721 2.326.927 9.004 2.26 19.309-7.885 23.018-22.661 3.697-14.729-.559-28.493-9.506-30.816z" fill="#e8cf89"/><path d="m357.762 361.951-45.22-9.044-7.992-11.666c-1.496-2.184-4.327-3.007-6.759-1.965l-43.227 51.834-40.107-51.815c-2.415-1.053-5.239-.262-6.754 1.893l-8.247 11.719-45.22 9.044c-23.023 4.605-39.596 24.821-39.596 48.3v59.194c40.508 26.881 89.1 42.555 141.36 42.555 52.258 0 100.85-15.672 141.359-42.555v-59.195c0-23.478-16.572-43.694-39.597-48.299z" fill="#ff6262"/><path d="m357.762 361.951-45.22-9.044-7.992-11.666c-1.496-2.184-4.327-3.007-6.759-1.965l-43.227 51.833v120.861c.481.002.955.028 1.436.028 52.258 0 100.85-15.672 141.36-42.555v-59.195c-.001-23.476-16.573-43.692-39.598-48.297z" fill="#ff0f27"/><path d="m254.564 391.111-40.445-52.905c-1.777-2.079-4.992-2.076-6.765.007l-13.245 15.763 31.911 58.87c2.898 4.636 9.604 4.763 12.676.241z" fill="#fff"/><path d="m254.564 391.111 43.018-52.905c1.777-2.079 4.992-2.076 6.765.007l14.003 15.856-32.67 58.777c-2.898 4.636-9.604 4.763-12.676.241z" fill="#ddd"/><path d="m172.678 240.485s-53.441-142.51 79.3-146.532c140.75-4.265 88.493 145.382 88.493 145.382s0-39.076-14.941-62.061-133.315-3.448-133.315-3.448-26.432 36.778-19.537 66.659z" fill="#2d2d2d"/><path d="m158.599 197.153c23.031-14.584 58.078-23.921 97.401-23.921s74.368 9.337 97.401 23.921v-62.197c0-5.554-3.194-10.612-8.24-13.233-22.759-11.826-54.296-19.151-89.16-19.151s-66.401 7.325-89.16 19.149c-5.046 2.622-8.24 7.678-8.24 13.234v62.198z" fill="#ff6262"/><path d="m345.16 121.722c-22.759-11.823-54.296-19.149-89.16-19.149-.481 0-.955.016-1.436.019v70.663c.481-.002.955-.021 1.436-.021 39.322 0 74.368 9.337 97.401 23.919v-62.197c0-5.554-3.195-10.612-8.241-13.234z" fill="#ff0f27"/><path d="m154.29 214.971c0 2.76 2.941 4.567 5.373 3.265 23.957-12.817 58.225-20.861 96.337-20.861s72.378 8.044 96.337 20.861c2.432 1.302 5.373-.505 5.373-3.265v-12.555c0-5.554-3.336-10.612-8.606-13.233-23.766-11.824-56.699-19.149-93.105-19.149-36.407 0-69.339 7.325-93.105 19.149-5.27 2.622-8.606 7.678-8.606 13.233v12.555z" fill="#e03a00"/><path d="m349.105 189.181c-23.766-11.824-56.699-19.149-93.105-19.149-.481 0-.955.016-1.436.017v27.345c.481-.002.955-.019 1.436-.019 38.112 0 72.378 8.044 96.337 20.861 2.432 1.302 5.373-.505 5.373-3.265v-12.555c0-5.556-3.335-10.613-8.605-13.235z" fill="#940030"/><g fill="#fff"><circle cx="256" cy="410.29" r="4.31"/><circle cx="256" cy="433.131" r="4.31"/><circle cx="256" cy="455.973" r="4.31"/></g><path d="m286.461 423.788h74.128v30.456h-74.128z" fill="#ddd"/></svg>