<svg enable-background="new 0 0 512.002 512.002" viewBox="0 0 512.002 512.002" xmlns="http://www.w3.org/2000/svg"><g fill="#515151"><circle cx="209.662" cy="448.974" r="5.746"/><circle cx="209.662" cy="471.057" r="5.746"/><circle cx="302.322" cy="448.974" r="5.746"/><circle cx="302.322" cy="471.057" r="5.746"/></g><circle cx="256.001" cy="256" fill="#386895" r="256"/><path d="m191.715 254.347 211.265 211.266c65.925-46.313 109.021-122.926 109.021-209.613 0-1.412-.031-2.817-.053-4.224l-160.091-175.317z" fill="#273b7a"/><path d="m213.334 292.219h85.333v85.333h-85.333z" fill="#fcd088"/><path d="m254.57 292.219h44.103v85.333h-44.103z" fill="#ddab62"/><path d="m357.765 360.5-45.22-9.044-7.992-11.666c-1.496-2.184-4.327-3.007-6.759-1.965l-8.785 3.784c-21.064 9.075-44.94 9.054-65.988-.06l-8.561-3.706c-2.415-1.053-5.239-.262-6.754 1.893l-8.247 11.719-45.22 9.044c-23.026 4.606-39.598 24.821-39.598 48.3v60.647c40.508 26.882 89.101 42.554 141.36 42.554s100.852-15.672 141.36-42.555v-60.647c0-23.479-16.572-43.694-39.596-48.298z" fill="#e2e2e2"/><path d="m357.765 360.5-45.22-9.044-7.992-11.666c-1.496-2.184-4.327-3.007-6.759-1.965l-8.785 3.786c-10.983 4.732-22.73 6.966-34.442 6.753v163.611c.479.002.955.028 1.436.028 52.258 0 100.852-15.672 141.36-42.555v-60.648c-.002-23.481-16.576-43.696-39.598-48.3z" fill="#a0a0a0"/><path d="m187.333 502.643c21.856 6.077 44.875 9.357 68.668 9.357s46.813-3.281 68.67-9.357v-148.763l-12.126-2.426-7.992-11.666c-1.496-2.184-4.327-3.007-6.759-1.965l-8.785 3.786c-21.064 9.075-44.94 9.054-65.988-.06l-8.561-3.706c-2.415-1.053-5.239-.262-6.754 1.893l-8.247 11.719-12.124 2.424v148.764z" fill="#fcfcfc"/><path d="m312.545 351.454-7.992-11.666c-1.496-2.184-4.327-3.007-6.759-1.965l-8.785 3.786c-10.983 4.732-22.73 6.966-34.442 6.753v163.612c.479.003.955.024 1.436.024 23.793 0 46.813-3.281 68.67-9.357v-148.763z" fill="#efefef"/><path d="m342.322 218.064c.433-4.003.659-7.949.659-11.797 0-50.902-38.943-92.167-86.98-92.167s-86.98 41.265-86.98 92.167c0 3.848.226 7.794.659 11.797-8.437 2.193-12.452 15.172-8.964 29.063 3.498 13.934 13.215 23.502 21.707 21.371.774-.195 1.496-.507 2.193-.874 15.719 31.549 41.827 57.144 71.385 57.144s55.668-25.595 71.385-57.144c.696.367 1.421.681 2.193.874 8.492 2.131 18.21-7.437 21.707-21.371 3.488-13.891-.527-26.87-8.964-29.063z" fill="#ffedb5"/><path d="m342.322 218.064c.433-4.003.659-7.949.659-11.797 0-50.902-38.943-92.167-86.98-92.167-.481 0-.955.031-1.436.038v210.591c.478.014.955.038 1.436.038 29.558 0 55.668-25.597 71.385-57.144.696.367 1.421.681 2.193.874 8.492 2.131 18.21-7.437 21.707-21.371 3.488-13.89-.527-26.869-8.964-29.062z" fill="#e8cf89"/><path d="m172.448 221.189c12.574 6.172 13.402 30.43 13.402 30.43s14.562-49.983 9.052-68.087 9.183-19.346 9.183-19.346c18.427 6.065 36.026 8.097 51.345 8.123v-58.428c-86.44.45-95.528 101.15-82.982 107.308z" fill="#3a3a3a"/><path d="m256.001 113.871c-.195 0-.381.01-.574.01v58.428c30.918.05 52.493-8.123 52.493-8.123s14.693 1.241 9.183 19.346c-5.51 18.104 9.052 68.087 9.052 68.087s.826-24.257 13.402-30.43 3.423-107.318-83.556-107.318z" fill="#333"/><circle cx="209.662" cy="404.825" fill="#515151" r="5.746"/><circle cx="209.662" cy="426.908" fill="#515151" r="5.746"/><circle cx="302.322" cy="404.825" fill="#515151" r="5.746"/><circle cx="302.322" cy="426.908" fill="#515151" r="5.746"/><path d="m361.159 106.174c0-28.803-23.349-52.152-52.152-52.152-9.678 0-18.735 2.646-26.503 7.24-7.768-4.594-16.825-7.24-26.503-7.24s-18.735 2.646-26.503 7.24c-7.768-4.594-16.825-7.24-26.503-7.24-28.803 0-52.152 23.349-52.152 52.152 0 15.512 6.778 29.432 17.527 38.984v50.785h175.264v-50.783c10.747-9.554 17.525-23.475 17.525-38.986z" fill="#efefef"/><path d="m309.009 54.022c-9.68 0-18.735 2.646-26.503 7.24-7.768-4.594-16.825-7.24-26.503-7.24-.483 0-.957.036-1.436.048v141.872h89.067v-50.782c10.749-9.554 17.527-23.474 17.527-38.986-.002-28.802-23.351-52.152-52.152-52.152z" fill="#a0a0a0"/></svg>