<svg enable-background="new 0 0 512 512" viewBox="0 0 512 512" xmlns="http://www.w3.org/2000/svg"><circle cx="256" cy="256" fill="#ff7f4f" r="256"/><path d="m348.37 101.788-131.516 254.414 136.583 136.583c90.36-37.224 154.729-124.65 158.38-227.55z" fill="#e03a00"/><path d="m213.333 292.219h85.333v85.333h-85.333z" fill="#fcd088"/><path d="m256.293 292.219h42.379v85.333h-42.379z" fill="#ddab62"/><path d="m357.764 360.5-45.22-9.044-7.992-11.666c-1.496-2.184-4.327-3.007-6.759-1.965l-.217.093c-26.533 11.431-56.606 11.404-83.116-.076-2.415-1.053-5.239-.262-6.754 1.893l-8.247 11.719-45.22 9.044c-23.026 4.606-39.598 24.821-39.598 48.3v60.647c40.507 26.883 89.101 42.555 141.359 42.555s100.852-15.672 141.36-42.555v-60.647c0-23.479-16.572-43.694-39.596-48.298z" fill="#5380a5"/><path d="m397.36 408.798c0-23.48-16.572-43.696-39.596-48.3l-45.22-9.044-7.992-11.666c-1.496-2.184-4.327-3.007-6.759-1.965l-.217.093c-13.179 5.677-27.231 8.521-41.288 8.547v165.529c52.15-.057 100.638-15.717 141.072-42.549z" fill="#386895"/><path d="m153.428 490.584c31.406 13.757 66.089 21.416 102.572 21.416s71.166-7.659 102.572-21.416v-129.886c-.272-.059-.534-.143-.809-.198l-45.22-9.044-7.992-11.666c-1.496-2.184-4.327-3.007-6.759-1.965l-.217.093c-26.533 11.431-56.606 11.404-83.116-.076-2.415-1.053-5.239-.262-6.754 1.893l-8.247 11.719-45.22 9.044c-.274.055-.536.14-.809.198v129.888z" fill="#366695"/><path d="m358.572 360.698c-.272-.059-.534-.143-.809-.198l-45.22-9.044-7.992-11.666c-1.496-2.184-4.327-3.007-6.759-1.965l-.217.093c-13.179 5.677-27.231 8.521-41.288 8.547v165.531c36.376-.04 70.961-7.69 102.285-21.413z" fill="#273b7a"/><path d="m347.531 205.44c.459-4.244.698-8.428.698-12.509 0-53.974-41.293-97.728-92.229-97.728s-92.229 43.753-92.229 97.728c0 4.08.24 8.264.698 12.509-8.945 2.326-13.202 16.087-9.506 30.817 3.708 14.776 14.014 24.921 23.018 22.661.821-.205 1.586-.538 2.326-.927 16.667 33.452 44.351 60.594 75.693 60.594s59.027-27.139 75.693-60.594c.74.39 1.505.722 2.326.927 9.004 2.26 19.309-7.885 23.018-22.661 3.695-14.73-.561-28.494-9.506-30.817z" fill="#ffedb5"/><path d="m347.531 205.44c.459-4.244.698-8.428.698-12.509 0-53.872-41.138-97.556-91.941-97.721v223.365c31.223-.165 58.79-27.236 75.405-60.585.74.39 1.505.721 2.326.927 9.004 2.26 19.309-7.885 23.018-22.661 3.695-14.729-.561-28.493-9.506-30.816z" fill="#e8cf89"/><g fill="#ffc91b"><path d="m295.364 414.599h35.34c4.601 0 8.332-3.731 8.332-8.332v-.574c0-4.601-3.731-8.332-8.332-8.332h-35.34c-4.601 0-8.332 3.731-8.332 8.332v.574c-.002 4.602 3.729 8.332 8.332 8.332z"/><circle cx="205.438" cy="414.168" r="5.603"/><circle cx="205.438" cy="457.266" r="5.603"/><circle cx="205.438" cy="435.717" r="5.603"/></g><path d="m163.138 179.976s-.041 24.502 3.189 39.586l8.051.21s-.565-20.09 17.811-39.183-29.051-.613-29.051-.613z" fill="#494948"/><path d="m350.136 180.364s-.578 24.497-4.189 39.498l-8.054.007s1.072-20.071-16.815-39.624c-17.886-19.555 29.058.119 29.058.119z" fill="#333"/><path d="m350.241 184.206c-62.266-11.878-126.216-11.878-188.481 0v-74.75c0-8.17 5.899-15.188 13.964-16.491 53.172-8.597 107.382-8.597 160.554 0 8.064 1.303 13.964 8.321 13.964 16.491z" fill="#5380a5"/><path d="m350.241 109.456c0-8.17-5.899-15.188-13.964-16.491-26.491-4.284-53.239-6.43-79.989-6.446v88.781c31.458.017 62.914 2.984 93.953 8.904z" fill="#386895"/><path d="m161.759 164.778v22.411c62.266-11.878 126.216-11.878 188.481 0v-22.411c-62.265-11.878-126.215-11.878-188.481 0z" fill="#ffc61b"/><path d="m350.241 164.778c-31.039-5.922-62.495-8.887-93.953-8.906v22.411c31.458.017 62.914 2.984 93.953 8.906z" fill="#ff7f4f"/></svg>