<svg enable-background="new 0 0 512 512" viewBox="0 0 512 512" xmlns="http://www.w3.org/2000/svg"><circle cx="256" cy="256" fill="#d48b07" r="256"/><path d="m507.782 302.463-186.467-186.468-56.658 252.849 112.642 112.642c67.145-36.198 116.269-101.504 130.483-179.023z" fill="#ff5419"/><path d="m166.933 211.178s-.574 95.965 48.269 161.473h81.598s41.948-49.419 37.926-119.524-167.793-41.949-167.793-41.949z" fill="#51331e"/><path d="m334.726 253.126c-1.903-33.168-39.567-44.335-78.726-46.902v166.426h40.8c0 .002 41.947-49.418 37.926-119.524z" fill="#3d2414"/><path d="m213.333 293.685h85.333v104.296h-85.333z" fill="#fcd088"/><path d="m256 293.685h42.665v104.296h-42.665z" fill="#ddab62"/><path d="m347.529 205.44c.459-4.244.698-8.428.698-12.509 0-53.974-41.293-97.728-92.229-97.728s-92.229 43.754-92.229 97.728c0 4.08.24 8.264.698 12.509-8.945 2.326-13.202 16.087-9.506 30.817 3.708 14.776 14.014 24.921 23.018 22.661.821-.205 1.586-.538 2.326-.927 16.667 33.452 44.351 60.594 75.693 60.594s59.027-27.139 75.693-60.594c.74.39 1.505.722 2.326.927 9.004 2.26 19.309-7.885 23.018-22.661 3.697-14.73-.559-28.494-9.506-30.817z" fill="#ffedb5"/><path d="m347.529 205.44c.459-4.244.698-8.428.698-12.509 0-53.974-41.291-97.728-92.227-97.728v223.38c31.341 0 59.027-27.141 75.692-60.594.74.39 1.505.722 2.326.927 9.004 2.26 19.309-7.885 23.018-22.661 3.696-14.728-.56-28.492-9.507-30.815z" fill="#e8cf89"/><path d="m216.064 376.099s34.766 24.423 84.471 0l-44.822 115.79z" fill="#ffad9e"/><path d="m256 386.941v104.205l44.534-115.047c-16.812 8.26-31.906 10.923-44.534 10.842z" fill="#ff6262"/><path d="m357.762 361.951-45.22-9.044-7.992-11.666c-1.496-2.184-4.327-3.007-6.759-1.965l-41.793 140.255-41.543-140.238c-2.415-1.053-5.239-.262-6.754 1.893l-8.247 11.719-45.22 9.044c-23.023 4.605-39.596 24.821-39.596 48.3v59.194c40.51 26.883 89.102 42.557 141.362 42.557 52.258 0 100.85-15.672 141.359-42.555v-59.195c0-23.478-16.572-43.694-39.597-48.299z" fill="#d9edec"/><path d="m397.359 410.252c0-23.48-16.574-43.696-39.596-48.3l-45.22-9.044-7.992-11.666c-1.496-2.184-4.327-3.007-6.759-1.965l-41.792 140.252v32.471c52.258 0 100.85-15.672 141.359-42.555z" fill="#b7cecc"/><path d="m192.215 415.03c-2.857 0-5.172-2.315-5.172-5.172v-58.613c0-2.857 2.315-5.172 5.172-5.172s5.172 2.315 5.172 5.172v58.613c0 2.857-2.315 5.172-5.172 5.172z" fill="#38c6d9"/><path d="m332.031 400.377c-2.857 0-5.172-2.315-5.172-5.172v-43.039c0-2.857 2.315-5.172 5.172-5.172s5.172 2.315 5.172 5.172v43.039c0 2.857-2.314 5.172-5.172 5.172z" fill="#38c6d9"/><circle cx="192.215" cy="423.857" fill="#606060" r="23.488"/><path d="m347.762 473.702h-1.293c-2.857 0-5.172-2.315-5.172-5.172s2.315-5.172 5.172-5.172h1.293c1.901 0 3.448-1.545 3.448-3.446v-38.143c0-10.576-8.602-19.178-19.178-19.178s-19.178 8.602-19.178 19.178v38.143c0 1.901 1.546 3.446 3.448 3.446 2.857 0 5.172 2.315 5.172 5.172s-2.315 5.172-5.172 5.172c-7.604 0-13.791-6.185-13.791-13.79v-38.143c0-16.277 13.245-29.522 29.522-29.522s29.522 13.245 29.522 29.522v38.143c-.002 7.604-6.187 13.79-13.793 13.79z" fill="#38c6d9"/><path d="m224.396 151.992s118.949 32.18 97.689 167.219c0 0 83.322-70.106 16.665-180.436-52.191-86.385-157.449-54.015-164.345-9.194 0 0-24.466 16.103-9.933 75.859-.005 0 36.939-10.927 59.924-53.448z" fill="#6d462b"/><path d="m338.747 138.774c-21.95-36.333-53.287-51.653-82.747-53.88v81.356c33.573 19.989 80.041 64.31 66.082 152.96.002 0 83.324-70.106 16.665-180.436z" fill="#4c2e19"/></svg>