<svg enable-background="new 0 0 512 512" viewBox="0 0 512 512" xmlns="http://www.w3.org/2000/svg"><circle cx="256" cy="256" fill="#71e2ef" r="256"/><path d="m356.705 119.811-31.461 39.65-87.921 188.282-123.545 121.135c40.68 27.233 89.593 43.122 142.222 43.122 135.184 0 245.881-104.784 255.333-237.561z" fill="#38c6d9"/><path d="m213.333 292.219h85.333v85.333h-85.333z" fill="#fcd088"/><path d="m255.431 292.219h43.236v85.333h-43.236z" fill="#ddab62"/><path d="m199.456 351.454-45.22 9.044c-23.024 4.606-39.596 24.821-39.596 48.3v59.809c40.432 27.067 89.05 42.861 141.36 42.861s100.928-15.794 141.36-42.861v-59.809c0-23.48-16.572-43.696-39.596-48.3l-45.22-9.044-7.992-11.666c-1.496-2.184-4.327-3.007-6.759-1.965l-41.793 18.007-41.543-17.987c-2.415-1.053-5.239-.262-6.754 1.893z" fill="#d9edec"/><path d="m357.764 360.5-45.22-9.044-7.992-11.666c-1.496-2.184-4.327-3.007-6.759-1.965l-41.793 18.005-.574-.248v155.877c.191 0 .381.01.574.01 52.31 0 100.928-15.794 141.36-42.861v-59.809c0-23.48-16.572-43.695-39.596-48.299z" fill="#a9bfbe"/><path d="m347.531 205.44c.459-4.244.698-8.428.698-12.509 0-53.974-41.293-97.728-92.229-97.728s-92.229 43.753-92.229 97.728c0 4.08.24 8.264.698 12.509-8.945 2.326-13.202 16.087-9.506 30.817 3.708 14.776 14.014 24.921 23.018 22.661.821-.205 1.586-.538 2.326-.927 16.667 33.452 44.351 60.594 75.693 60.594s59.027-27.139 75.693-60.594c.74.39 1.505.722 2.326.927 9.004 2.26 19.309-7.885 23.018-22.661 3.695-14.73-.561-28.494-9.506-30.817z" fill="#ffedb5"/><path d="m347.531 205.44c.459-4.244.698-8.428.698-12.509 0-53.974-41.293-97.728-92.229-97.728-.193 0-.381.014-.574.016v223.349c.191.002.383.016.574.016 31.342 0 59.027-27.139 75.693-60.594.74.39 1.505.722 2.326.927 9.004 2.26 19.309-7.885 23.018-22.661 3.695-14.729-.561-28.493-9.506-30.816z" fill="#e8cf89"/><path d="m204.14 170.667s40.081 38.357 121.966 24.566c0 0 7.94-1.998 21.425 10.207 0 0 22.535-32.618 9.175-85.628 0 0-41.374-13.36-60.768-25.428-19.394-12.067-71.111-24.997-82.747 11.205 0 0-37.495-4.741-47.838 34.047s-.883 65.803-.883 65.803 19.414-46.84 39.67-34.772z" fill="#494948"/><path d="m356.705 119.811s-41.374-13.36-60.768-25.428c-8.975-5.584-24.869-11.343-40.512-12.341v112.376c18.492 4.07 42.015 5.642 70.68.815 0 0 7.94-1.998 21.425 10.207.001 0 22.536-32.618 9.175-85.629z" fill="#282826"/><path d="m256 481.461-44.68-80.17 44.68-44.539 44.68 44.539z" fill="#b7cecc"/><path d="m300.68 401.291-44.68-44.539-.574.572v123.106l.574 1.031z" fill="#8ea5a2"/><path d="m274.677 375.513-18.677-18.761-18.677 18.761 10.488 13.479v81.419h16.378v-81.419z" fill="#386895"/><path d="m256 356.752-.574.577v113.082h8.763v-81.419l10.488-13.479z" fill="#273b7a"/><path d="m358.384 360.108-35.807-6.682-66.577 113.247-66.655-113.197-35.73 6.632c-23.164 4.634-39.838 24.972-39.838 48.595v60.175c40.68 27.231 89.594 43.122 142.223 43.122s101.543-15.891 142.222-43.122v-60.175c0-23.622-16.673-43.961-39.838-48.595z" fill="#273b7a"/><path d="m358.384 360.108-35.807-6.682-66.577 113.247-.574-.976v46.29c.191 0 .381.01.574.01 52.629 0 101.543-15.891 142.222-43.122v-60.173c0-23.621-16.673-43.96-39.838-48.594z" fill="#121149"/></svg>