<svg enable-background="new 0 0 512 512" viewBox="0 0 512 512" xmlns="http://www.w3.org/2000/svg"><circle cx="256" cy="256" fill="#71e2ef" r="256"/><path d="m123.814 472.781h268.386c60.418-38.04 103.808-100.628 116.184-173.773l-186.017-186.016z" fill="#71e2ef"/><path d="m123.814 472.781h268.386c60.418-38.04 103.808-100.628 116.184-173.773l-186.017-186.016z" fill="#38c6d9"/><path d="m202.416 101.71s-13.465-7.871-34.047 11.205c-35.34 32.754-41.805 148.256 21.549 247.811h145.239s69.675-160.18-2.155-241.204c-48.74-54.979-130.586-17.812-130.586-17.812z" fill="#494948"/><path d="m333.002 119.524c-22.566-25.455-52.226-31.153-77.576-29.937v271.141h79.731c0-.001 69.675-160.181-2.155-241.204z" fill="#333"/><path d="m213.333 292.219h85.333v104.296h-85.333z" fill="#fcd088"/><path d="m255.431 292.219h43.236v104.296h-43.236z" fill="#ddab62"/><path d="m199.456 351.454-45.22 9.044c-23.024 4.606-39.596 24.821-39.596 48.3v59.809c40.432 27.067 89.05 42.861 141.36 42.861s100.928-15.794 141.36-42.861v-59.809c0-23.48-16.572-43.696-39.596-48.3l-45.22-9.044-7.992-11.666c-1.496-2.184-4.327-3.007-6.759-1.965l-41.793 47.499-41.543-47.48c-2.415-1.053-5.239-.262-6.754 1.893z" fill="#d9edec"/><path d="m357.764 360.5-45.22-9.044-7.992-11.666c-1.496-2.184-4.327-3.007-6.759-1.965l-41.793 47.497-.574-.655v126.792c.191 0 .381.01.574.01 52.31 0 100.928-15.794 141.36-42.861v-59.809c0-23.48-16.572-43.695-39.596-48.299z" fill="#aabab9"/><path d="m347.531 205.44c.459-4.244.698-8.428.698-12.509 0-53.974-41.293-97.728-92.229-97.728s-92.229 43.753-92.229 97.728c0 4.08.24 8.264.698 12.509-8.945 2.326-13.202 16.087-9.506 30.817 3.708 14.776 14.014 24.921 23.018 22.661.821-.205 1.586-.538 2.326-.927 16.667 33.452 44.351 60.594 75.693 60.594s59.027-27.139 75.693-60.594c.74.39 1.505.722 2.326.927 9.004 2.26 19.309-7.885 23.018-22.661 3.695-14.73-.561-28.494-9.506-30.817z" fill="#ffedb5"/><path d="m347.531 205.44c.459-4.244.698-8.428.698-12.509 0-53.974-41.293-97.728-92.229-97.728-.193 0-.381.014-.574.016v223.349c.191.002.381.016.574.016 31.342 0 59.027-27.139 75.693-60.594.74.39 1.505.722 2.326.927 9.004 2.26 19.309-7.885 23.018-22.661 3.695-14.729-.561-28.493-9.506-30.816z" fill="#e8cf89"/><path d="m256 481.461-44.68-80.17 44.68-15.969 44.68 15.969z" fill="#b7cecc"/><path d="m300.68 401.291-44.68-15.969-.574.205v94.905l.574 1.029z" fill="#8ea3a0"/><path d="m189.345 353.477-35.73 6.632c-23.164 4.634-39.838 24.972-39.838 48.595v60.175c40.531 27.133 89.24 42.996 141.648 43.111v-46.289z" fill="#273b7a"/><path d="m358.384 360.108-35.873-6.661-66.511 113.226-.574-.974v46.289c.191 0 .381.01.574.01 52.629 0 101.543-15.891 142.222-43.122v-60.173c0-23.622-16.673-43.961-39.838-48.595z" fill="#121149"/><path d="m330.847 279.704c-.447-91.964-109.899-124.552-109.899-124.552s-21.592 34.204-56.479 50.288c0 0-5.868.998-9.892 11.342-4.024 10.343-12.929-88.35 53.872-119.38s117.634-2.481 141.36 50.424c37.496 83.608-18.962 131.878-18.962 131.878z" fill="#494948"/><path d="m349.81 147.825c-17.789-39.665-50.816-65.639-94.384-63.078v85.47c32.125 17.601 75.142 51.903 75.421 109.487 0 0 56.458-48.27 18.963-131.879z" fill="#333"/><g fill="#d9edec"><circle cx="256" cy="403.963" r="4.31"/><circle cx="256" cy="421.788" r="4.31"/></g></svg>