<svg enable-background="new 0 0 512 512" viewBox="0 0 512 512" xmlns="http://www.w3.org/2000/svg"><circle cx="256" cy="256" fill="#d48b07" r="256"/><path d="m368.054 119.411-210.891 215.027 168.079 168.079c105.517-29.577 183.474-125.071 186.651-239.266z" fill="#ff5419"/><path d="m173.253 131.879s-81.598 159.173 10.343 266.056l155.726-9.194s48.843-55.739 23.561-201.123" fill="#3a3a3a"/><path d="m362.882 187.618-107.456-31.585v237.661l83.897-4.953s48.844-55.739 23.559-201.123z" fill="#333"/><path d="m213.333 293.685h85.333v104.296h-85.333z" fill="#fcd088"/><path d="m255.431 293.685h43.236v104.296h-43.236z" fill="#ddab62"/><path d="m347.529 205.44c.459-4.244.698-8.428.698-12.509 0-53.974-41.293-97.728-92.229-97.728s-92.229 43.754-92.229 97.728c0 4.08.24 8.264.698 12.509-8.945 2.326-13.202 16.087-9.506 30.817 3.708 14.776 14.014 24.921 23.018 22.661.821-.205 1.586-.538 2.326-.927 16.667 33.452 44.351 60.594 75.693 60.594s59.027-27.139 75.693-60.594c.74.39 1.505.722 2.326.927 9.004 2.26 19.309-7.885 23.018-22.661 3.697-14.73-.559-28.494-9.506-30.817z" fill="#ffedb5"/><path d="m347.529 205.44c.459-4.244.698-8.428.698-12.509 0-53.974-41.293-97.728-92.229-97.728-.193 0-.381.014-.574.016v223.349c.191.002.381.016.574.016 31.342 0 59.027-27.139 75.693-60.594.74.39 1.505.722 2.326.927 9.004 2.26 19.309-7.885 23.018-22.661 3.697-14.729-.559-28.493-9.506-30.816z" fill="#e8cf89"/><path d="m216.064 376.099s34.766 24.423 84.471 0l-44.822 115.79z" fill="#ff6262"/><path d="m300.535 376.099c-17.065 8.385-32.368 11.011-45.109 10.847v104.103l.288.84z" fill="#ff0f27"/><path d="m357.762 361.951-45.22-9.044-7.992-11.666c-1.496-2.184-4.327-3.007-6.759-1.965l-41.793 140.255-41.543-140.238c-2.415-1.053-5.239-.262-6.754 1.893l-8.247 11.719-45.22 9.044c-23.023 4.605-39.596 24.821-39.596 48.3v59.194c40.51 26.883 89.102 42.557 141.362 42.557 52.258 0 100.85-15.672 141.359-42.555v-59.195c0-23.478-16.572-43.694-39.597-48.299z" fill="#d9edec"/><path d="m357.762 361.951-45.22-9.044-7.992-11.666c-1.496-2.184-4.327-3.007-6.759-1.965l-41.793 140.255-.574-1.934v34.392c.191 0 .383.01.574.01 52.258 0 100.85-15.672 141.36-42.555v-59.194c.001-23.478-16.571-43.694-39.596-48.299z" fill="#bdd1cf"/><path d="m233.015 144.52s32.18 41.948 78.15 63.21 13.217 75.852 13.217 75.852 98.263-120.099-18.963-180.436c-104.022-53.541-165.783 63.785-136.763 118.662.001.002 18.102-52.003 64.359-77.288z" fill="#3a3a3a"/><path d="m305.419 103.146c-18.017-9.273-34.764-13.414-49.993-13.648v79.193c13.757 13.036 33.066 28.551 55.739 39.038 45.971 21.261 13.217 75.852 13.217 75.852s98.263-120.098-18.963-180.435z" fill="#333"/><path d="m329.333 162.601c-40.501-45.173-106.165-45.173-146.666 0-12.907-14.396-25.814-28.791-38.721-43.189 61.886-69.027 162.223-69.027 224.109 0-12.908 14.396-25.815 28.792-38.722 43.189z" fill="#d9edec"/><path d="m255.426 67.65v61.087c26.733-.164 53.51 11.116 73.907 33.864 12.907-14.396 25.814-28.793 38.721-43.189-31.089-34.675-71.882-51.926-112.628-51.762z" fill="#bdd1cf"/></svg>