<svg enable-background="new 0 0 512.002 512.002" viewBox="0 0 512.002 512.002" xmlns="http://www.w3.org/2000/svg"><circle cx="256.001" cy="256" fill="#ff7f4f" r="256"/><path d="m141.797 431.411 78.033 78.033c11.819 1.672 23.892 2.557 36.171 2.557 141.384 0 256-114.616 256-256 0-1.85-.031-3.691-.071-5.53l-152.805-152.807z" fill="#ff5419"/><path d="m213.334 292.219h85.333v93.522h-85.333z" fill="#fcd088"/><path d="m255.432 292.219h43.236v93.522h-43.236z" fill="#ddab62"/><path d="m357.765 360.5-45.22-9.044-7.992-11.666c-1.496-2.184-4.327-3.007-6.759-1.965l-41.793 41.722-41.543-41.703c-2.415-1.053-5.239-.262-6.754 1.893l-8.247 11.719-45.22 9.044c-23.024 4.604-39.596 24.819-39.596 48.299v60.647c40.508 26.883 89.1 42.555 141.36 42.555s100.852-15.672 141.36-42.555v-60.647c0-23.48-16.572-43.695-39.596-48.299z" fill="#386895"/><path d="m357.765 360.5-45.22-9.044-7.992-11.666c-1.496-2.184-4.327-3.007-6.759-1.965l-41.793 41.722-.574-.576v133.019c.191 0 .381.01.574.01 52.26 0 100.852-15.672 141.36-42.555v-60.647c0-23.479-16.572-43.694-39.596-48.298z" fill="#273b7a"/><path d="m347.532 205.44c.459-4.244.698-8.428.698-12.509 0-53.974-41.293-97.728-92.229-97.728s-92.229 43.753-92.229 97.728c0 4.08.24 8.264.698 12.509-8.945 2.326-13.202 16.087-9.506 30.817 3.708 14.776 14.014 24.921 23.018 22.661.821-.205 1.586-.538 2.326-.927 16.667 33.452 44.351 60.594 75.693 60.594s59.027-27.139 75.693-60.594c.74.39 1.505.722 2.326.927 9.004 2.26 19.309-7.885 23.018-22.661 3.695-14.73-.561-28.494-9.506-30.817z" fill="#ffedb5"/><path d="m347.532 205.44c.459-4.244.698-8.428.698-12.509 0-53.974-41.293-97.728-92.229-97.728-.193 0-.381.014-.574.016v223.349c.191.002.381.016.574.016 31.342 0 59.027-27.139 75.693-60.594.74.39 1.505.722 2.326.927 9.004 2.26 19.309-7.885 23.018-22.661 3.695-14.729-.561-28.493-9.506-30.816z" fill="#e8cf89"/><path d="m341.765 460.283h-34.478c-6.427 0-11.636 5.21-11.636 11.636v37.021c20.123-3.129 39.465-8.611 57.751-16.141v-20.88c0-6.427-5.21-11.636-11.637-11.636z" fill="#121149"/><path d="m204.715 460.283h-34.478c-6.427 0-11.636 5.21-11.636 11.636v20.882c18.285 7.53 37.628 13.01 57.751 16.141v-37.023c-.001-6.427-5.211-11.636-11.637-11.636z" fill="#263a7a"/><path d="m237.324 396.776 10.488 13.477v101.604c2.72.086 5.448.143 8.189.143s5.468-.059 8.189-.143v-101.604l10.488-13.477-18.677-17.229z" fill="#121149"/><path d="m237.324 396.776 10.488 13.477v101.604c2.531.079 5.068.126 7.614.134v-131.915z" fill="#121149"/><path d="m256.001 379.547-.574.529v131.915c.191 0 .381.01.574.01 2.741 0 5.468-.059 8.189-.143v-101.603l10.488-13.477z" fill="#080833"/><path d="m256.001 379.547-43.973-51.484c-1.872-2.007-5.26-2.003-7.127.007l-16.994 24.828 36.664 47.176c3.053 4.472 10.119 4.596 13.357.233z" fill="#273b7a"/><path d="m256.001 379.547 43.973-51.484c1.872-2.007 5.26-2.003 7.127.007l16.994 24.828-36.664 47.176c-3.053 4.472-10.119 4.596-13.357.233z" fill="#121149"/><path d="m162.048 189.918s1.724 18.963 6.034 30.456l8.045-.288s-2.012-15.515 14.941-31.318-29.02 1.15-29.02 1.15z" fill="#494948"/><path d="m384.647 141.097c0 32.787-57.74 45.085-128.79 45.085s-128.503-12.298-128.503-45.085 57.597-85.07 128.646-85.07 128.647 52.283 128.647 85.07z" fill="#5380a5"/><path d="m256.001 56.027c-.193 0-.381.012-.574.014v130.139c.145 0 .286.002.431.002 71.049 0 128.79-12.298 128.79-45.085s-57.596-85.07-128.647-85.07z" fill="#366695"/><path d="m349.954 189.918s-1.724 18.963-6.034 30.456l-8.045-.288s2.012-15.515-14.941-31.318c-16.952-15.803 29.02 1.15 29.02 1.15z" fill="#333"/><path d="m256.001 213.999c39.421 0 75.143-9.969 101.224-26.124 1.995-1.236 1.131-4.31-1.215-18.963h-200.018c-2.346 14.653-3.21 17.727-1.215 18.963 26.081 16.154 61.803 26.124 101.224 26.124z" fill="#273b7a"/><path d="m356.01 168.912h-100.583v45.078c.193 0 .381.009.574.009 39.421 0 75.143-9.969 101.224-26.124 1.995-1.236 1.131-4.31-1.215-18.963z" fill="#121149"/><path d="m355.746 188.383c-66.036-9.375-133.022-9.395-199.061-.06-1.534.217-2.953-.846-3.167-2.382-.986-7.071-1.97-14.143-2.955-21.214-.321-2.301 1.284-4.439 3.584-4.76 67.589-9.433 136.121-9.433 203.71 0 2.301.321 3.905 2.458 3.584 4.76-1.005 7.213-2.01 14.427-3.015 21.64-.18 1.301-1.38 2.201-2.68 2.016z" fill="#366695"/><path d="m357.856 159.968c-33.985-4.742-68.208-7.097-102.429-7.07v28.446c33.518-.028 67.039 2.315 100.318 7.039 1.3.184 2.5-.715 2.681-2.015 1.005-7.213 2.01-14.427 3.015-21.64.322-2.302-1.283-4.439-3.585-4.76z" fill="#273b7a"/><ellipse cx="256.001" cy="108.318" fill="#ffc61b" rx="18.963" ry="23.561"/><path d="m237.038 108.318c0 12.771 8.183 23.143 18.389 23.524v-47.047c-10.204.38-18.389 10.752-18.389 23.523z" fill="#fee187"/></svg>