<svg enable-background="new 0 0 512 512" viewBox="0 0 512 512" xmlns="http://www.w3.org/2000/svg"><circle cx="256" cy="256" fill="#ffc61b" r="256"/><path d="m187.389 375.006 129.651 129.652c106.351-26.019 186.621-118.469 194.336-230.878l-132.979-132.978z" fill="#d48b07"/><path d="m213.333 292.219h85.333v93.522h-85.333z" fill="#fcd088"/><path d="m257.155 292.219h41.512v93.522h-41.512z" fill="#ddab62"/><path d="m356.49 364.391-43.946-12.235-8.289-11.593c-1.488-2.17-4.299-2.988-6.718-1.953l-41.537 17.894-41.289-17.877c-2.401-1.046-5.206-.26-6.713 1.881l-8.311 11.648-44.247 11.804c-22.885 4.577-39.938 21.854-39.938 45.19v60.276c40.262 26.719 88.557 42.294 140.498 42.294 43.898 0 85.199-11.117 121.242-30.689 6.603-4.087 13.028-8.268 19.256-12.438v-59.445c0-23.334-17.125-40.18-40.008-44.757z" fill="#e0e2e2"/><path d="m356.49 364.391-43.946-12.235-8.289-11.593c-1.488-2.17-4.299-2.988-6.718-1.953l-41.25 17.77v155.338c43.789-.048 84.99-11.155 120.953-30.684 6.603-4.089 13.028-8.268 19.256-12.438v-59.446c.002-23.336-17.123-40.182-40.006-44.759z" fill="#bcbcbc"/><path d="m300.408 401.689-44.408-44.268-44.408 44.268-11.905-49.533-14.364 6.273 11.597 146.382c18.961 4.51 38.74 6.911 59.08 6.911 25.357 0 49.84-3.727 72.952-10.633l-2.282-142.193-14.126-6.74z" fill="#fff"/><path d="m326.668 358.896-14.126-6.74-12.136 49.533-44.12-43.98v154.009c25.254-.028 49.64-3.748 72.663-10.628z" fill="#fff"/><path d="m237.323 375.513 10.488 13.478v101.604c2.72.086 5.448.143 8.189.143s5.468-.059 8.189-.143v-101.604l10.488-13.477-18.677-17.23z" fill="#273b7a"/><path d="m256.288 358.552v132.182c2.643-.003 5.275-.055 7.901-.138v-101.604l10.488-13.477z" fill="#121149"/><path d="m344.629 226.568c.445-4.11.676-8.161.676-12.112 0-52.264-39.984-94.632-89.305-94.632s-89.305 42.368-89.305 94.632c0 3.951.233 8.002.676 12.112-8.663 2.251-12.784 15.577-9.204 29.839 3.591 14.307 13.569 24.131 22.288 21.942.795-.2 1.536-.521 2.251-.898 16.137 32.392 42.946 58.673 73.294 58.673s57.156-26.279 73.294-58.673c.715.378 1.458.698 2.251.898 8.718 2.188 18.697-7.635 22.288-21.942 3.581-14.262-.541-27.59-9.204-29.839z" fill="#ffedb5"/><path d="m344.629 226.568c.445-4.11.676-8.161.676-12.112 0-52.16-39.829-94.458-89.017-94.623v216.285c30.23-.165 56.92-26.376 73.006-58.665.715.378 1.458.698 2.251.898 8.718 2.188 18.697-7.635 22.288-21.944 3.581-14.262-.541-27.59-9.204-29.839z" fill="#e8cf89"/><path d="m256 491.456-72.816-136.763-42.599 5.417c-26.112 4.632-44.908 24.971-44.908 48.593v46.864c43.878 35.296 99.628 56.433 160.323 56.433.097 0 .191-.003.288-.003v-21.082z" fill="#366695"/><path d="m416.323 408.704c0-23.623-18.796-43.961-44.908-48.593l-42.777-5.47-72.351 136.275v21.082c60.583-.067 116.227-21.189 160.035-56.429v-46.865z" fill="#273b7a"/><path d="m200.949 166.124s-15.579 1.315-9.737 20.513-9.599 72.195-9.599 72.195-.876-25.721-14.21-32.266c-13.334-6.546-3.631-113.795 88.597-113.795s101.929 107.251 88.597 113.795c-13.333 6.544-14.21 32.266-14.21 32.266s-15.441-53-9.599-72.195c5.842-19.196-9.737-20.513-9.737-20.513s-51.122 19.411-110.102 0z" fill="#6d4711"/><path d="m200.949 166.124s-15.579 1.315-9.737 20.513-9.599 72.195-9.599 72.195-.876-25.721-14.21-32.266c-13.334-6.546-3.631-113.795 88.597-113.795s101.929 107.251 88.597 113.795c-13.333 6.544-14.21 32.266-14.21 32.266s-15.441-53-9.599-72.195c5.842-19.196-9.737-20.513-9.737-20.513s-51.122 19.411-110.102 0z" fill="#6d4711"/><path d="m298.672 330.128s-27.969 79.463-49.538 181.784c2.282.057 4.57.088 6.866.088 8.47 0 16.841-.397 25.1-1.152l48.64-85.009c1.3-2.272 1.226-5.079-.19-7.278l-12.343-19.175c-2.338-3.632-.869-8.494 3.089-10.223l22.754-9.94c3.793-1.657 5.315-6.203 3.325-9.831-6.729-12.275-23.163-36.895-47.703-39.264z" fill="#121149"/><path d="m213.328 330.128c-24.755 2.389-42.308 27.422-49.442 39.583-2.017 3.437-.559 7.861 3.093 9.456l23.259 10.161c3.76 1.643 5.156 6.261 2.936 9.712l-12.643 19.64c-1.365 2.122-1.415 4.834-.129 7.004l50.498 85.164c8.259.755 16.629 1.152 25.1 1.152 2.296 0 4.584-.031 6.866-.088-21.571-102.321-49.538-181.784-49.538-181.784z" fill="#273b7a"/><path d="m378.397 140.802c0 31.194-54.936 42.894-122.534 42.894s-122.261-11.7-122.261-42.894 54.8-80.938 122.398-80.938 122.397 49.744 122.397 80.938z" fill="#366695"/><path d="m378.397 140.802c0-31.149-54.644-80.789-122.109-80.93v123.823c67.403-.051 122.109-11.766 122.109-42.893z" fill="#273b7a"/><path d="m256 210.161c37.505 0 71.494-9.485 96.308-24.855 1.898-1.176 1.076-4.099-1.157-18.041h-190.302c-2.232 13.941-3.055 16.865-1.157 18.041 24.814 15.37 58.803 24.855 96.308 24.855z" fill="#366695"/><path d="m351.151 167.265h-94.863v42.893c37.392-.048 71.27-9.519 96.02-24.852 1.898-1.176 1.075-4.099-1.157-18.041z" fill="#273b7a"/><path d="m350.898 185.792c-62.828-8.919-126.561-8.938-189.392-.057-1.46.207-2.808-.805-3.013-2.265-.938-6.728-1.874-13.455-2.812-20.183-.305-2.189 1.221-4.224 3.41-4.529 64.307-8.975 129.508-8.975 193.815 0 2.189.305 3.715 2.339 3.41 4.529-.957 6.863-1.912 13.726-2.869 20.589-.17 1.234-1.312 2.09-2.549 1.916z" fill="#273b7a"/><path d="m352.908 158.756c-32.058-4.474-64.338-6.715-96.62-6.728v27.062c31.613.014 63.224 2.248 94.61 6.703 1.236.176 2.379-.681 2.551-1.919.957-6.863 1.912-13.726 2.869-20.589.305-2.189-1.221-4.224-3.41-4.529z" fill="#121149"/><path d="m273.984 289.032c-12.045-5.847-15.736-3.277-17.984-.398-2.248-2.879-5.939-5.449-17.984.398-12.317 5.98-28.562-.912-28.562-.912s8.675 12.622 29.915 11.047c9.099-.674 14.686-3.463 16.631-6.296 1.945 2.832 7.532 5.622 16.631 6.296 21.242 1.574 29.915-11.047 29.915-11.047s-16.245 6.892-28.562.912z" fill="#6d4711"/><path d="m273.984 289.032c-11.552-5.608-15.415-3.472-17.696-.746v4.923c2.146 2.713 7.608 5.311 16.343 5.958 21.242 1.576 29.915-11.047 29.915-11.047s-16.245 6.892-28.562.912z" fill="#59370e"/><path d="m164.059 353.401-27.582 1.724 81.427 154.05c10.521 1.57 21.251 2.501 32.147 2.75z" fill="#af5f00"/></svg>