<svg enable-background="new 0 0 512 512" viewBox="0 0 512 512" xmlns="http://www.w3.org/2000/svg"><circle cx="256" cy="256" fill="#71e2ef" r="256"/><path d="m225.726 439.546 69.468 69.468c122.781-18.863 216.806-124.957 216.806-253.014 0-.681-.021-1.358-.026-2.038l-153.114-153.114z" fill="#38c6d9"/><path d="m213.333 292.219h85.333v85.333h-85.333z" fill="#fcd088"/><path d="m256.293 292.219h42.379v85.333h-42.379z" fill="#ddab62"/><path d="m357.764 360.5-45.22-9.044-7.992-11.666c-1.496-2.184-4.327-3.007-6.759-1.965l-41.793 18.005-41.543-17.987c-2.415-1.053-5.239-.262-6.754 1.893l-8.247 11.719-45.22 9.044c-23.024 4.606-39.596 24.821-39.596 48.3v60.647c40.508 26.882 89.1 42.554 141.36 42.554s100.852-15.672 141.36-42.555v-60.647c0-23.479-16.573-43.694-39.596-48.298z" fill="#d9edec"/><path d="m397.36 408.798c0-23.48-16.574-43.696-39.596-48.3l-45.22-9.044-7.992-11.666c-1.496-2.184-4.327-3.007-6.759-1.965l-41.503 17.88v156.289c52.148-.057 100.638-15.717 141.072-42.549v-60.645z" fill="#c7d8d7"/><path d="m347.531 205.44c.459-4.244.698-8.428.698-12.509 0-53.974-41.293-97.728-92.229-97.728s-92.229 43.753-92.229 97.728c0 4.08.24 8.264.698 12.509-8.945 2.326-13.202 16.087-9.506 30.817 3.708 14.776 14.014 24.921 23.018 22.661.821-.205 1.586-.538 2.326-.927 16.667 33.452 44.351 60.594 75.693 60.594s59.027-27.139 75.693-60.594c.74.39 1.505.722 2.326.927 9.004 2.26 19.309-7.885 23.018-22.661 3.695-14.73-.561-28.494-9.506-30.817z" fill="#ffedb5"/><path d="m347.531 205.44c.459-4.244.698-8.428.698-12.509 0-53.872-41.138-97.556-91.941-97.721v223.365c31.223-.167 58.79-27.236 75.405-60.585.74.39 1.505.722 2.326.927 9.004 2.26 19.309-7.885 23.018-22.661 3.695-14.729-.561-28.493-9.506-30.816z" fill="#e8cf89"/><path d="m204.14 170.667s40.081 38.357 121.966 24.566c0 0 7.94-1.998 21.425 10.207 0 0 24.691-51.581 11.331-104.591 0 0-43.529 5.603-62.923-6.465-19.394-12.067-71.111-24.997-82.747 11.205 0 0-37.495-4.741-47.838 34.047s-.883 65.803-.883 65.803 19.413-46.84 39.669-34.772z" fill="#494948"/><path d="m358.86 100.848s-43.529 5.603-62.923-6.465c-8.809-5.482-24.288-11.124-39.65-12.276v112.509c18.358 3.927 41.605 5.368 69.818.615 0 0 7.94-1.998 21.425 10.207.001.002 24.691-51.579 11.33-104.59z" fill="#333"/><path d="m267.91 511.697c30.484-1.398 59.564-8.135 86.354-19.287v-132.61l-34.907-6.982z" fill="#333"/><path d="m244.09 511.697c-30.484-1.398-59.564-8.135-86.354-19.287v-132.61l34.907-6.982z" fill="#494948"/><path d="m290.245 355.924-24.061 8.814c-.398-1.245-1.552-2.151-2.929-2.151h-13.648c-1.37 0-2.52.9-2.924 2.136l-24.017-8.799c-4.16-1.524-8.566 1.555-8.566 5.985v30.396c0 4.429 4.406 7.509 8.566 5.985l24.017-8.799c.403 1.236 1.552 2.136 2.924 2.136h13.648c1.377 0 2.529-.907 2.929-2.151l24.061 8.814c4.16 1.524 8.566-1.555 8.566-5.985v-30.395c0-4.431-4.406-7.509-8.566-5.986z" fill="#494948"/><path d="m290.245 355.924-24.061 8.814c-.398-1.245-1.552-2.151-2.929-2.151h-6.968v29.041h6.968c1.377 0 2.529-.907 2.929-2.151l24.061 8.814c4.16 1.524 8.566-1.555 8.566-5.985v-30.396c0-4.431-4.406-7.509-8.566-5.986z" fill="#333"/><g fill="#adadad"><circle cx="256" cy="410.29" r="4.31"/><circle cx="256" cy="433.131" r="4.31"/><circle cx="256" cy="455.973" r="4.31"/></g></svg>