<svg enable-background="new 0 0 512 512" viewBox="0 0 512 512" xmlns="http://www.w3.org/2000/svg"><circle cx="256" cy="256" fill="#ffc61b" r="256"/><path d="m232.441 377.823 116.698 116.698c86.616-33.849 150.264-113.512 161.178-209.196l-206.565-206.565z" fill="#d48b07"/><path d="m213.333 292.219h85.333v104.296h-85.333z" fill="#fcd088"/><path d="m255.431 292.219h43.236v104.296h-43.236z" fill="#ddab62"/><path d="m357.764 365.671-45.22-9.044-7.992-11.666c-1.496-2.184-4.327-3.007-6.759-1.965l-41.793 47.498-41.543-47.48c-2.415-1.053-5.239-.262-6.754 1.893l-8.247 11.719-45.22 9.044c-23.023 4.606-39.596 24.821-39.596 48.3v55.475c40.508 26.883 89.102 42.555 141.36 42.555s100.852-15.672 141.36-42.555v-55.475c0-23.479-16.573-43.694-39.596-48.299z" fill="#ffad9e"/><path d="m357.764 365.671-45.22-9.044-7.992-11.666c-1.496-2.184-4.327-3.007-6.759-1.965l-41.793 47.498-.574-.657v122.151c.191 0 .381.01.574.01 52.258 0 100.852-15.672 141.36-42.555v-55.475c0-23.477-16.573-43.692-39.596-48.297z" fill="#ff6262"/><path d="m347.531 205.44c.459-4.244.698-8.428.698-12.509 0-53.974-41.293-97.728-92.229-97.728s-92.229 43.754-92.229 97.728c0 4.08.24 8.264.698 12.509-8.945 2.326-13.202 16.087-9.506 30.817 3.708 14.776 14.014 24.921 23.018 22.661.821-.205 1.586-.538 2.326-.927 16.667 33.452 44.351 60.594 75.693 60.594s59.027-27.139 75.693-60.594c.74.39 1.505.722 2.326.927 9.004 2.26 19.309-7.885 23.018-22.661 3.697-14.73-.559-28.494-9.506-30.817z" fill="#ffedb5"/><path d="m347.531 205.44c.459-4.244.698-8.428.698-12.509 0-53.974-41.293-97.728-92.229-97.728-.193 0-.381.014-.574.016v223.349c.191.002.383.016.574.016 31.342 0 59.027-27.139 75.693-60.594.74.39 1.505.722 2.326.927 9.004 2.26 19.309-7.885 23.018-22.661 3.697-14.729-.559-28.493-9.506-30.816z" fill="#e8cf89"/><g fill="#fff"><circle cx="256" cy="413.186" r="4.31"/><circle cx="256" cy="430.994" r="4.31"/><path d="m256 390.608-40.262-51.053c-1.714-2.007-4.817-2.003-6.527.007l-15.56 18.292 33.57 53.713c2.796 4.472 9.266 4.596 12.229.233z"/></g><path d="m256 390.608 40.262-51.053c1.714-2.007 4.817-2.003 6.527.007l15.56 18.292-33.57 53.713c-2.796 4.472-9.266 4.596-12.229.233z" fill="#e0e0e0"/><path d="m295.684 200.416c-12.266 0-22.566 8.459-25.447 19.842h-28.472c-2.882-11.383-13.181-19.842-25.447-19.842-10.85 0-20.183 6.611-24.188 16.015l-21.306-21.307c-1.684-1.684-4.411-1.684-6.094 0-1.684 1.683-1.684 4.411 0 6.094l25.319 25.321c0 .052-.009.103-.009.155 0 14.489 11.788 26.277 26.277 26.277 13.753 0 25.052-10.624 26.167-24.095h27.033c1.115 13.469 12.414 24.095 26.167 24.095 14.489 0 26.277-11.788 26.277-26.277s-11.787-26.278-26.277-26.278zm-79.367 43.936c-9.737 0-17.658-7.921-17.658-17.658s7.921-17.658 17.658-17.658 17.658 7.921 17.658 17.658c0 9.736-7.921 17.658-17.658 17.658zm79.367 0c-9.737 0-17.658-7.921-17.658-17.658s7.921-17.658 17.658-17.658 17.658 7.921 17.658 17.658c0 9.736-7.921 17.658-17.658 17.658z" fill="#444"/><path d="m295.684 200.416c-12.266 0-22.566 8.459-25.447 19.842h-14.81v8.62h14.091c1.115 13.469 12.414 24.095 26.167 24.095 14.489 0 26.277-11.788 26.277-26.277s-11.788-26.28-26.278-26.28zm0 43.936c-9.737 0-17.658-7.921-17.658-17.658s7.921-17.658 17.658-17.658 17.658 7.921 17.658 17.658c0 9.736-7.921 17.658-17.658 17.658z" fill="#333"/><path d="m318.185 228.524c-1.103 0-2.205-.421-3.048-1.262-1.684-1.683-1.684-4.411 0-6.094l26.041-26.043c1.684-1.684 4.411-1.684 6.094 0 1.684 1.683 1.684 4.411 0 6.094l-26.041 26.043c-.841.84-1.945 1.262-3.046 1.262z" fill="#444"/><path d="m350.817 144.52c-12.495-20.396-29.091-38.253-49.652-48.909 2.367-3.35 3.681-7.011 3.681-10.854 0-15.869-22.254-28.732-49.705-28.732s-49.705 12.864-49.705 28.732c0 4.277 1.629 8.332 4.529 11.979-.507.229-1.003.428-1.512.664-66.801 31.03-57.894 129.724-53.872 119.38 4.022-10.343 9.892-11.342 9.892-11.342 34.887-16.084 56.477-50.288 56.477-50.288s119.524 22.699 102.285 154.864c-.001.001 75.453-87.361 27.582-165.494z" fill="#494948"/><path d="m350.817 144.52c-12.495-20.396-29.091-38.253-49.652-48.909 2.367-3.35 3.681-7.011 3.681-10.854 0-15.812-22.1-28.638-49.419-28.727v111.976c33.823 17.648 78.845 57.392 67.806 142.008.001.001 75.455-87.361 27.584-165.494z" fill="#333"/></svg>